<?xml version="1.0" encoding="utf-8"?>
<!-- Generator: Adobe Illustrator 24.0.0, SVG Export Plug-In . SVG Version: 6.00 Build 0)  -->
<svg version="1.1" id="Capa_1" xmlns="http://www.w3.org/2000/svg" xmlns:xlink="http://www.w3.org/1999/xlink" x="0px" y="0px"
	 viewBox="0 0 200 200" style="enable-background:new 0 0 200 200;" xml:space="preserve">
<style type="text/css">
	.st0{fill:#1D1D1B;}
	.st1{fill-rule:evenodd;clip-rule:evenodd;fill:#1D1D1B;}
	.st2{fill:#FFC629;}
</style>
<g>
	<g>
		<path class="st0" d="M121,88.4l-2.9-8.6l-3.1,8.6H121z M109.8,95.5c0-0.2,0-0.3,0.1-0.4l6.5-17.2c0.2-0.5,0.6-0.8,1.2-0.8h1.2
			c0.5,0,1,0.3,1.2,0.8l6.2,17.1c0.1,0.1,0.1,0.3,0.1,0.5c0,0.7-0.6,1.3-1.3,1.3c-0.6,0-1.1-0.4-1.3-0.9l-1.8-5.3h-7.7l-1.9,5.3
			c-0.2,0.5-0.6,0.9-1.2,0.9C110.4,96.7,109.8,96.1,109.8,95.5z"/>
		<path class="st0" d="M94.9,91.1c0.1,0.7,0.3,1.2,0.7,1.7c0.9,1.3,2.4,1.9,4.6,1.9c1,0,1.9-0.1,2.7-0.4c1.6-0.5,2.3-1.5,2.3-2.9
			c0-1.1-0.3-1.8-1-2.3c-0.7-0.4-1.7-0.8-3.1-1.1l-2.6-0.6c-1.7-0.4-2.9-0.8-3.6-1.3c-1.2-0.8-1.8-2-1.8-3.6c0-1.7,0.6-3.2,1.8-4.3
			c1.2-1.1,2.9-1.7,5.1-1.7c2,0,3.8,0.5,5.2,1.5c1.1,0.7,1.7,1.8,2,3.1c0,0.1,0,0.2,0,0.3c0,0.7-0.6,1.3-1.3,1.3
			c-0.6,0-1.1-0.4-1.2-1c-0.2-0.6-0.4-1.1-0.7-1.4c-0.8-1-2.2-1.5-4.1-1.5c-1.5,0-2.7,0.3-3.3,1c-0.7,0.7-1,1.4-1,2.3
			c0,1,0.4,1.6,1.2,2.1c0.5,0.3,1.7,0.6,3.5,1.1l2.7,0.6c1.3,0.3,2.3,0.7,3,1.2c1.2,0.9,1.8,2.2,1.8,3.9c0,2.1-0.8,3.7-2.3,4.6
			c-1.6,0.9-3.4,1.4-5.4,1.4c-2.4,0-4.3-0.6-5.7-1.8c-1-0.9-1.7-2.1-1.9-3.5c0-0.1,0-0.1,0-0.2c0-0.7,0.6-1.3,1.3-1.3
			C94.2,90.1,94.8,90.5,94.9,91.1z"/>
		<path class="st0" d="M69.4,78.4c0.9,0.8,1.5,1.7,1.8,2.6c0.1,0.1,0.1,0.3,0.1,0.5c0,0.7-0.6,1.3-1.3,1.3c-0.5,0-1-0.3-1.2-0.8
			c-0.3-0.9-0.8-1.6-1.5-2.1c-0.9-0.7-2.1-1.1-3.6-1.1c-1.9,0-3.5,0.7-4.6,2c-1.2,1.3-1.8,3.4-1.8,6.2c0,2.3,0.5,4.1,1.6,5.5
			c1.1,1.4,2.6,2.1,4.8,2.1c1.9,0,3.4-0.7,4.4-2.2c0.4-0.6,0.7-1.3,1-2.2c0.2-0.5,0.7-0.9,1.2-0.9c0.7,0,1.3,0.6,1.3,1.3
			c0,0.1,0,0.2,0,0.3c-0.4,1.4-1,2.5-2,3.5c-1.5,1.7-3.6,2.5-6.2,2.5c-2.3,0-4.1-0.7-5.7-2c-2-1.8-3-4.6-3-8.4c0-2.9,0.8-5.2,2.3-7
			c1.6-2,3.9-3,6.8-3C66.1,76.4,68,77.1,69.4,78.4z"/>
		<path class="st0" d="M85,88.4L82,79.8l-3.1,8.6H85z M73.8,95.5c0-0.2,0-0.3,0.1-0.4l6.5-17.2c0.2-0.5,0.6-0.8,1.2-0.8h1.2
			c0.5,0,1,0.3,1.2,0.8l6.2,17.1c0.1,0.1,0.1,0.3,0.1,0.5c0,0.7-0.6,1.3-1.3,1.3c-0.6,0-1.1-0.4-1.3-0.9l-1.8-5.3h-7.7l-1.9,5.3
			c-0.2,0.5-0.6,0.9-1.2,0.9C74.3,96.7,73.8,96.1,73.8,95.5z"/>
	</g>
	<g>
		<path class="st1" d="M0.5,100C0.5,87,11,76.4,24,76.4S47.6,87,47.6,100c0,13-10.5,23.6-23.6,23.6S0.5,113,0.5,100z"/>
		<path class="st2" d="M35,97c1.9,1.5,0.2,4.6-1.5,6.3c-3,3.1-6.6,5.3-11,6.3c1.3-2.4,8.5-13,8.5-13C31.2,96.4,34.4,96.5,35,97z
			 M29,89.5c4.3-2,6.5-2.7,6.5-2.7c-0.9,1.4-3.5,5.3-3.5,5.3c-2.7,0.4-8.9,2.7-13.4,6.9c-2.2,2-3.3,4-3.4,4.6
			c-0.1,0.9,0.5,2.3,2.1,2.5c0.7,0.1,1.7,0.5,2,0.1c0.7-0.8-1.2-0.8-1.6-1.8c-0.1-0.3,0.1-1.7,2.2-3.6c2.7-2.5,6.1-3.6,8.7-4
			c-0.1,0.3-8.8,13.1-9,13.2c0,0-4.4,0.8-8-0.4c-4.9-1.6-3.2-6.1,0.7-9.8C17.5,94.7,24.2,91.7,29,89.5z M41.4,84.1
			c3.8,4.2,6.1,9.8,6.1,15.9c0,13-10.5,23.6-23.6,23.6c-3.5,0-6.8-0.8-9.8-2.1c3.9-5.5,7.3-10.4,7.3-10.4c8.3-1.7,12.4-4.6,14.5-6.3
			c1.6-1.3,5.1-4.5,6.4-7.6c0.7-1.5,0.4-4.7-3.7-5.5c-2.1-0.3-4.2,0-4.2,0c0-0.1,4.2-6.3,4.2-6.3L41.4,84.1z M0.5,100
			C0.5,87,11,76.4,24,76.4c5.2,0,10,1.7,13.9,4.5c-4.2,2-11.8,5.4-14.7,7.1c-12.4,6.7-16.4,13.9-16.4,13.9c-3,4.9-1.5,7.7,1.9,8.7
			c4.5,1.4,10.1,0.7,10.1,0.7c-1,1.5-3.6,5.2-6.4,9.1C5.3,116.4,0.5,108.8,0.5,100z"/>
	</g>
	<g>
		<g>
			<path class="st1" d="M196.3,122.4v-2.2h1c0.2,0,0.3,0,0.4,0.1c0.1,0,0.2,0.1,0.2,0.2s0.1,0.2,0.1,0.3c0,0.2-0.1,0.3-0.2,0.4
				c-0.1,0.1-0.3,0.2-0.5,0.2c0.1,0,0.1,0.1,0.2,0.1c0.1,0.1,0.2,0.2,0.2,0.3l0.4,0.6h-0.4l-0.3-0.5c-0.1-0.1-0.2-0.2-0.2-0.3
				c-0.1-0.1-0.1-0.1-0.1-0.1c0,0-0.1,0-0.1-0.1c0,0-0.1,0-0.2,0h-0.3v1H196.3z M196.6,121.2h0.6c0.1,0,0.2,0,0.3,0
				c0.1,0,0.1-0.1,0.2-0.1c0-0.1,0.1-0.1,0.1-0.2c0-0.1,0-0.2-0.1-0.3c-0.1-0.1-0.2-0.1-0.4-0.1h-0.7V121.2z"/>
			<path class="st0" d="M197.3,119.1c1.2,0,2.2,1,2.2,2.2c0,1.2-1,2.2-2.2,2.2c-1.2,0-2.2-1-2.2-2.2
				C195.1,120.1,196.1,119.1,197.3,119.1z M197.3,119.4c-1.1,0-1.9,0.9-1.9,1.9c0,1.1,0.9,1.9,1.9,1.9c1.1,0,1.9-0.9,1.9-1.9
				C199.2,120.3,198.4,119.4,197.3,119.4z"/>
		</g>
		<g>
			<path class="st1" d="M55.1,119.9c-0.2,0.4-0.4,1.2-0.4,1.7c0,1.2,0.8,1.9,2.1,1.9c1.1,0,1.7-0.4,2-1.2l1.2-3.2H67l1.1,3.2
				c0.3,0.9,1,1.2,2,1.2c1.1,0,2.1-0.9,2.1-1.9c0-0.5-0.3-1.3-0.4-1.7L66.4,105c-0.5-1.4-1.4-1.6-2.4-1.6H63c-1.1,0-1.8,0.4-2.2,1.4
				L55.1,119.9z M66,116h-5.2l2.6-7.8h0.1L66,116z"/>
			<path class="st1" d="M74.4,121.4c0,1.1,0.5,2.2,2,2.2c1.4,0,2-1.1,2-2.2v-12.1h0.1l4.1,12.9c0.3,0.9,1,1.3,1.9,1.3
				c0.9,0,1.6-0.4,1.9-1.3l4.1-12.9h0.1v12.1c0,1.1,0.5,2.2,2,2.2c1.4,0,2-1.1,2-2.2v-15.8c0-1.8-1.2-2.2-2.4-2.2h-1.2
				c-1.4,0-2,0.5-2.5,2l-3.8,12.5h-0.1l-3.9-12.5c-0.5-1.5-1.1-2-2.5-2h-1.3c-1.2,0-2.4,0.4-2.4,2.2V121.4z"/>
			<path class="st1" d="M97.1,119.9c-0.2,0.4-0.4,1.2-0.4,1.7c0,1.2,0.8,1.9,2.1,1.9c1.1,0,1.7-0.4,2-1.2l1.2-3.2h7.1l1.1,3.2
				c0.3,0.9,1,1.2,2,1.2c1.1,0,2.1-0.9,2.1-1.9c0-0.5-0.3-1.3-0.4-1.7l-5.4-14.9c-0.5-1.4-1.4-1.6-2.4-1.6H105
				c-1.1,0-1.8,0.4-2.2,1.4L97.1,119.9z M108,116h-5.2l2.6-7.8h0.1L108,116z"/>
			<path class="st1" d="M116.5,121.3c0,1.3,0.9,2.2,2.2,2.2c1.4,0,2.2-0.9,2.2-2.2v-5.7h4.4c2.4,0,3.1,1.4,3.1,4.8
				c0,0.8,0.2,3.1,2.6,3.1c1,0,2.1-0.7,2.1-1.7c0-0.9-0.6-1.8-0.6-4c0-2-0.4-3.6-2.7-3.9v-0.1c2.1-0.5,3.4-2.6,3.4-4.7
				c0-2.5-1.4-5.4-6.7-5.4h-7.4c-1.6,0-2.6,0.6-2.6,2.6V121.3z M120.9,107.2h4.6c1.9,0,3.2,0.5,3.2,2.6c0,2.2-1.7,2.6-3.4,2.6h-4.4
				V107.2z"/>
			<path class="st1" d="M136.5,121.3c0,1.3,0.9,2.2,2.2,2.2c1.4,0,2.2-0.9,2.2-2.2v-15.7c0-1.3-0.9-2.2-2.2-2.2
				c-1.4,0-2.2,0.9-2.2,2.2V121.3z"/>
			<path class="st1" d="M145.1,120.6c0,2,1,2.6,2.6,2.6h9.2c1.3,0,2.3-0.6,2.3-1.9c0-1.2-1-1.9-2.3-1.9h-7.4v-13.9
				c0-1.3-0.9-2.2-2.2-2.2c-1.4,0-2.2,0.9-2.2,2.2V120.6z"/>
			<path class="st1" d="M161.6,120.6c0,2,1,2.6,2.6,2.6h9.2c1.3,0,2.3-0.6,2.3-1.9c0-1.2-1-1.9-2.3-1.9H166v-13.9
				c0-1.3-0.9-2.2-2.2-2.2c-1.4,0-2.2,0.9-2.2,2.2V120.6z"/>
			<path class="st1" d="M176.7,119.9c-0.2,0.4-0.4,1.2-0.4,1.7c0,1.2,0.8,1.9,2.1,1.9c1.1,0,1.7-0.4,2-1.2l1.2-3.2h7.1l1.1,3.2
				c0.3,0.9,1,1.2,2,1.2c1.1,0,2.1-0.9,2.1-1.9c0-0.5-0.3-1.3-0.4-1.7L188,105c-0.5-1.4-1.4-1.6-2.4-1.6h-1.1
				c-1.1,0-1.8,0.4-2.2,1.4L176.7,119.9z M187.6,116h-5.2l2.6-7.8h0.1L187.6,116z"/>
		</g>
	</g>
</g>
</svg>
