<?xml version="1.0" encoding="utf-8"?>
<!-- Generator: Adobe Illustrator 24.0.0, SVG Export Plug-In . SVG Version: 6.00 Build 0)  -->
<svg version="1.1" id="Capa_1" xmlns="http://www.w3.org/2000/svg" xmlns:xlink="http://www.w3.org/1999/xlink" x="0px" y="0px"
	 viewBox="0 0 200 200" style="enable-background:new 0 0 200 200;" xml:space="preserve">
<style type="text/css">
	.st0{fill:#EFB813;}
</style>
<g>
	<g>
		<g>
			<path class="st0" d="M79.7,80.2c-0.1-0.5-0.1-1-0.2-1.5c-0.3-2.2-0.6-4.7-1.1-7.4l-5.5-30.7h-25l20.1,68.6
				C67.1,93.2,75.1,84,79.7,80.2z"/>
			<path class="st0" d="M97.7,40.6h-8.9L82.2,73c-0.1,0.3-0.1,0.6-0.2,1c-0.4,1.8-0.6,3.4-0.9,5c2.7-2,5.7-3.7,9.1-4.9
				c1.6-0.6,2.6-1.4,3.1-3c1.2-3.2,2.8-6.3,4.4-10L97.7,40.6L97.7,40.6z"/>
			<polygon class="st0" points="97.7,144.8 97.7,144.9 91.3,137.8 90.6,123.7 70.9,118.2 82.1,157.2 79.7,165.5 43.4,40.6 
				18.5,40.6 62.2,191.3 97.7,191.3 			"/>
		</g>
		<g>
			<path class="st0" d="M120.4,80.2c0.1-0.5,0.1-1,0.2-1.5c0.3-2.2,0.6-4.7,1.1-7.4l5.5-30.7h25.1l-20.2,68.6
				C132.9,93.2,125,84,120.4,80.2z"/>
			<path class="st0" d="M102.3,40.6h8.9l6.6,32.5c0.1,0.3,0.1,0.6,0.2,1c0.4,1.8,0.6,3.4,0.9,5c-2.7-2-5.7-3.7-9.1-4.9
				c-1.6-0.6-2.6-1.4-3.1-3c-1.2-3.2-2.8-6.3-4.4-10L102.3,40.6L102.3,40.6z"/>
			<polygon class="st0" points="102.3,144.8 102.3,144.9 108.7,137.8 109.5,123.7 129.2,118.2 117.9,157.2 120.3,165.5 156.6,40.6 
				181.5,40.6 137.8,191.3 102.3,191.3 			"/>
		</g>
	</g>
	<g>
		<path class="st0" d="M22.4,14.5l4.1,9L31.1,13l4.5,10.5l4.1-9h4.1l-8.3,17l-4.4-10.2l-4.4,10.2l-8.3-17
			C18.5,14.5,22.4,14.5,22.4,14.5z"/>
		<path class="st0" d="M106.1,17.8v12.4h-3.7V17.8h-1.6v-3.4h1.6V8.7h3.7v5.8h2.8v3.4C108.9,17.8,106.1,17.8,106.1,17.8z"/>
		<path class="st0" d="M141.5,14.5h3.7v15.8h-3.7v-1.7c-1.5,1.4-3.1,2.1-4.9,2.1c-2.2,0-4-0.8-5.4-2.4c-1.4-1.7-2.1-3.6-2.1-6.1
			c0-2.4,0.7-4.3,2.1-5.9s3.2-2.4,5.3-2.4c1.8,0,3.5,0.7,5,2.3V14.5z M132.9,22.2c0,1.5,0.4,2.8,1.2,3.7c0.8,0.9,1.9,1.5,3.1,1.5
			c1.4,0,2.5-0.5,3.3-1.4c0.8-0.9,1.3-2.2,1.3-3.7s-0.5-2.7-1.3-3.7c-0.8-0.9-1.9-1.4-3.2-1.4s-2.3,0.5-3.1,1.5
			C133.3,19.7,132.9,20.9,132.9,22.2z"/>
		<path class="st0" d="M168.1,14.5h3.7v1.5c1.3-1.3,2.8-1.9,4.3-1.9c1.8,0,3.3,0.6,4.3,1.7c0.9,1,1.4,2.6,1.4,4.8v9.6h-3.7v-8.8
			c0-1.6-0.2-2.7-0.6-3.2c-0.5-0.6-1.2-0.9-2.3-0.9c-1.2,0-2.1,0.4-2.6,1.2s-0.7,2.2-0.7,4.1v7.6h-3.7L168.1,14.5L168.1,14.5z"/>
		<path class="st0" d="M80.4,16l-2.6-2.6L76,15.3c-1.3-0.8-2.8-1.3-4.5-1.3c-2.4,0-4.3,0.8-6,2.4c-1.7,1.6-2.5,3.6-2.5,5.8
			c0,1.7,0.5,3.3,1.3,4.7l-1.8,1.8l2.7,2.6l1.8-1.8c1.3,0.8,2.8,1.2,4.4,1.2c2.4,0,4.4-0.8,6.1-2.4c1.7-1.6,2.5-3.6,2.5-6
			c0-1.7-0.5-3.2-1.3-4.5L80.4,16z M66.8,22.2c0-1.5,0.5-2.7,1.3-3.6c0.8-0.9,2-1.4,3.4-1.4c0.7,0,1.5,0.2,2.1,0.5l-6.5,6.5
			C66.9,23.6,66.8,23,66.8,22.2z M76.2,22.3c0,1.6-0.5,2.8-1.3,3.7c-0.8,0.9-2,1.4-3.4,1.4c-0.7,0-1.5-0.2-2-0.5l6.5-6.5
			C76.1,21.1,76.2,21.7,76.2,22.3z"/>
	</g>
</g>
</svg>
