<?xml version="1.0" encoding="utf-8"?>
<!-- Generator: Adobe Illustrator 24.0.0, SVG Export Plug-In . SVG Version: 6.00 Build 0)  -->
<svg version="1.1" id="Capa_1" xmlns="http://www.w3.org/2000/svg" xmlns:xlink="http://www.w3.org/1999/xlink" x="0px" y="0px"
	 viewBox="0 0 343 200" style="enable-background:new 0 0 343 200;" xml:space="preserve">
<style type="text/css">
	.st0{fill:#1D1D1B;}
	.st1{fill-rule:evenodd;clip-rule:evenodd;fill:#1D1D1B;}
	.st2{fill:#FFC629;}
</style>
<g>
	<g>
		<path class="st0" d="M207.7,80l-5-14.8L197.3,80H207.7z M188.4,92.2c0-0.3,0-0.5,0.2-0.7l11.2-29.6c0.3-0.9,1-1.4,2.1-1.4h2.1
			c0.9,0,1.7,0.5,2.1,1.4l10.7,29.5c0.2,0.2,0.2,0.5,0.2,0.9c0,1.2-1,2.2-2.2,2.2c-1,0-1.9-0.7-2.2-1.6l-3.1-9.1H196l-3.3,9.1
			c-0.3,0.9-1,1.6-2.1,1.6C189.4,94.3,188.4,93.3,188.4,92.2z"/>
		<path class="st0" d="M162.7,84.7c0.2,1.2,0.5,2.1,1.2,2.9c1.6,2.2,4.1,3.3,7.9,3.3c1.7,0,3.3-0.2,4.7-0.7c2.8-0.9,4-2.6,4-5
			c0-1.9-0.5-3.1-1.7-4c-1.2-0.7-2.9-1.4-5.3-1.9l-4.5-1c-2.9-0.7-5-1.4-6.2-2.2c-2.1-1.4-3.1-3.4-3.1-6.2c0-2.9,1-5.5,3.1-7.4
			c2.1-1.9,5-2.9,8.8-2.9c3.4,0,6.5,0.9,9,2.6c1.9,1.2,2.9,3.1,3.4,5.3c0,0.2,0,0.3,0,0.5c0,1.2-1,2.2-2.2,2.2c-1,0-1.9-0.7-2.1-1.7
			c-0.3-1-0.7-1.9-1.2-2.4c-1.4-1.7-3.8-2.6-7.1-2.6c-2.6,0-4.7,0.5-5.7,1.7c-1.2,1.2-1.7,2.4-1.7,4c0,1.7,0.7,2.8,2.1,3.6
			c0.9,0.5,2.9,1,6,1.9l4.7,1c2.2,0.5,4,1.2,5.2,2.1c2.1,1.6,3.1,3.8,3.1,6.7c0,3.6-1.4,6.4-4,7.9c-2.8,1.6-5.9,2.4-9.3,2.4
			c-4.1,0-7.4-1-9.8-3.1c-1.7-1.6-2.9-3.6-3.3-6c0-0.2,0-0.2,0-0.3c0-1.2,1-2.2,2.2-2.2C161.5,82.9,162.5,83.6,162.7,84.7z"/>
		<path class="st0" d="M118.7,62.8c1.6,1.4,2.6,2.9,3.1,4.5c0.2,0.2,0.2,0.5,0.2,0.9c0,1.2-1,2.2-2.2,2.2c-0.9,0-1.7-0.5-2.1-1.4
			c-0.5-1.6-1.4-2.8-2.6-3.6c-1.6-1.2-3.6-1.9-6.2-1.9c-3.3,0-6,1.2-7.9,3.4c-2.1,2.2-3.1,5.9-3.1,10.7c0,4,0.9,7.1,2.8,9.5
			c1.9,2.4,4.5,3.6,8.3,3.6c3.3,0,5.9-1.2,7.6-3.8c0.7-1,1.2-2.2,1.7-3.8c0.3-0.9,1.2-1.6,2.1-1.6c1.2,0,2.2,1,2.2,2.2
			c0,0.2,0,0.3,0,0.5c-0.7,2.4-1.7,4.3-3.4,6c-2.6,2.9-6.2,4.3-10.7,4.3c-4,0-7.1-1.2-9.8-3.4c-3.4-3.1-5.2-7.9-5.2-14.5
			c0-5,1.4-9,4-12.1c2.8-3.4,6.7-5.2,11.7-5.2C113.1,59.3,116.3,60.5,118.7,62.8z"/>
		<path class="st0" d="M145.6,80l-5.2-14.8L135.1,80H145.6z M126.3,92.2c0-0.3,0-0.5,0.2-0.7l11.2-29.6c0.3-0.9,1-1.4,2.1-1.4h2.1
			c0.9,0,1.7,0.5,2.1,1.4l10.7,29.5c0.2,0.2,0.2,0.5,0.2,0.9c0,1.2-1,2.2-2.2,2.2c-1,0-1.9-0.7-2.2-1.6l-3.1-9.1h-13.3l-3.3,9.1
			c-0.3,0.9-1,1.6-2.1,1.6C127.2,94.3,126.3,93.3,126.3,92.2z"/>
	</g>
	<g>
		<path class="st1" d="M0,100c0-22.4,18.1-40.7,40.5-40.7S81.2,77.6,81.2,100s-18.1,40.7-40.7,40.7S0,122.4,0,100z"/>
		<path class="st2" d="M59.5,94.8c3.3,2.6,0.3,7.9-2.6,10.9c-5.2,5.3-11.4,9.1-19,10.9c2.2-4.1,14.6-22.4,14.6-22.4
			C52.9,93.8,58.4,94,59.5,94.8z M49.1,81.9c7.4-3.4,11.2-4.7,11.2-4.7c-1.6,2.4-6,9.1-6,9.1C49.6,87.1,39,91,31.2,98.3
			c-3.8,3.4-5.7,6.9-5.9,7.9c-0.2,1.6,0.9,4,3.6,4.3c1.2,0.2,2.9,0.9,3.4,0.2c1.2-1.4-2.1-1.4-2.8-3.1c-0.2-0.5,0.2-2.9,3.8-6.2
			c4.7-4.3,10.5-6.2,15-6.9c-0.2,0.5-15.2,22.6-15.5,22.8c0,0-7.6,1.4-13.8-0.7c-8.4-2.8-5.5-10.5,1.2-16.9
			C29.3,90.9,40.8,85.7,49.1,81.9z M70.5,72.6C77,79.8,81,89.5,81,100c0,22.4-18.1,40.7-40.7,40.7c-6,0-11.7-1.4-16.9-3.6
			c6.7-9.5,12.6-17.9,12.6-17.9c14.3-2.9,21.4-7.9,25-10.9c2.8-2.2,8.8-7.8,11-13.1c1.2-2.6,0.7-8.1-6.4-9.5c-3.6-0.5-7.2,0-7.2,0
			c0-0.2,7.2-10.9,7.2-10.9L70.5,72.6z M0,100c0-22.4,18.1-40.7,40.5-40.7c9,0,17.2,2.9,24,7.8c-7.2,3.4-20.3,9.3-25.3,12.2
			c-21.4,11.5-28.3,24-28.3,24c-5.2,8.4-2.6,13.3,3.3,15c7.8,2.4,17.4,1.2,17.4,1.2c-1.7,2.6-6.2,9-11,15.7C8.3,128.3,0,115.2,0,100
			z"/>
	</g>
	<g>
		<g>
			<path class="st1" d="M337.5,138.6v-3.8h1.7c0.3,0,0.5,0,0.7,0.2c0.2,0,0.3,0.2,0.3,0.3s0.2,0.3,0.2,0.5c0,0.3-0.2,0.5-0.3,0.7
				c-0.2,0.2-0.5,0.3-0.9,0.3c0.2,0,0.2,0.2,0.3,0.2c0.2,0.2,0.3,0.3,0.3,0.5l0.7,1h-0.7l-0.5-0.9c-0.2-0.2-0.3-0.3-0.3-0.5
				c-0.2-0.2-0.2-0.2-0.2-0.2s-0.2,0-0.2-0.2c0,0-0.2,0-0.3,0h-0.5v1.7H337.5z M338,136.5h1c0.2,0,0.3,0,0.5,0
				c0.2,0,0.2-0.2,0.3-0.2c0-0.2,0.2-0.2,0.2-0.3c0-0.2,0-0.3-0.2-0.5c-0.2-0.2-0.3-0.2-0.7-0.2H338L338,136.5L338,136.5z"/>
			<path class="st0" d="M339.2,132.9c2.1,0,3.8,1.7,3.8,3.8s-1.7,3.8-3.8,3.8c-2.1,0-3.8-1.7-3.8-3.8S337.1,132.9,339.2,132.9z
				 M339.2,133.4c-1.9,0-3.3,1.6-3.3,3.3c0,1.9,1.6,3.3,3.3,3.3c1.9,0,3.3-1.6,3.3-3.3S341.1,133.4,339.2,133.4z"/>
		</g>
		<g>
			<path class="st1" d="M94.1,134.3c-0.3,0.7-0.7,2.1-0.7,2.9c0,2.1,1.4,3.3,3.6,3.3c1.9,0,2.9-0.7,3.4-2.1l2.1-5.5h12.1l1.9,5.5
				c0.5,1.6,1.7,2.1,3.4,2.1c1.9,0,3.6-1.6,3.6-3.3c0-0.9-0.5-2.2-0.7-2.9l-9.3-25.7c-0.9-2.4-2.4-2.8-4.1-2.8h-1.7
				c-1.9,0-3.1,0.7-3.8,2.4L94.1,134.3z M112.9,127.6h-9l4.5-13.4h0.2L112.9,127.6z"/>
			<path class="st1" d="M127.4,136.9c0,1.9,0.9,3.8,3.4,3.8c2.4,0,3.4-1.9,3.4-3.8V116h0.2l7.1,22.2c0.5,1.6,1.7,2.2,3.3,2.2
				c1.6,0,2.8-0.7,3.3-2.2l7.1-22.2h0.2v20.9c0,1.9,0.9,3.8,3.4,3.8c2.4,0,3.4-1.9,3.4-3.8v-27.2c0-3.1-2.1-3.8-4.1-3.8H156
				c-2.4,0-3.4,0.9-4.3,3.4l-6.5,21.5h-0.2l-6.7-21.5c-0.9-2.6-1.9-3.4-4.3-3.4h-2.2c-2.1,0-4.1,0.7-4.1,3.8v27.2H127.4z"/>
			<path class="st1" d="M166.5,134.3c-0.3,0.7-0.7,2.1-0.7,2.9c0,2.1,1.4,3.3,3.6,3.3c1.9,0,2.9-0.7,3.4-2.1l2.1-5.5h12.2l1.9,5.5
				c0.5,1.6,1.7,2.1,3.4,2.1c1.9,0,3.6-1.6,3.6-3.3c0-0.9-0.5-2.2-0.7-2.9l-9.3-25.7c-0.9-2.4-2.4-2.8-4.1-2.8h-1.9
				c-1.9,0-3.1,0.7-3.8,2.4L166.5,134.3z M185.3,127.6h-9l4.5-13.4h0.2L185.3,127.6z"/>
			<path class="st1" d="M199.9,136.7c0,2.2,1.6,3.8,3.8,3.8c2.4,0,3.8-1.6,3.8-3.8v-9.8h7.6c4.1,0,5.3,2.4,5.3,8.3
				c0,1.4,0.3,5.3,4.5,5.3c1.7,0,3.6-1.2,3.6-2.9c0-1.6-1-3.1-1-6.9c0-3.4-0.7-6.2-4.7-6.7v-0.2c3.6-0.9,5.9-4.5,5.9-8.1
				c0-4.3-2.4-9.3-11.5-9.3h-12.8c-2.8,0-4.5,1-4.5,4.5V136.7z M207.5,112.4h7.9c3.3,0,5.5,0.9,5.5,4.5c0,3.8-2.9,4.5-5.9,4.5h-7.6
				C207.5,121.4,207.5,112.4,207.5,112.4z"/>
			<path class="st1" d="M234.4,136.7c0,2.2,1.6,3.8,3.8,3.8c2.4,0,3.8-1.6,3.8-3.8v-27.1c0-2.2-1.6-3.8-3.8-3.8
				c-2.4,0-3.8,1.6-3.8,3.8V136.7z"/>
			<path class="st1" d="M249.2,135.5c0,3.4,1.7,4.5,4.5,4.5h15.9c2.2,0,4-1,4-3.3c0-2.1-1.7-3.3-4-3.3h-12.8v-24
				c0-2.2-1.6-3.8-3.8-3.8c-2.4,0-3.8,1.6-3.8,3.8L249.2,135.5L249.2,135.5z"/>
			<path class="st1" d="M277.7,135.5c0,3.4,1.7,4.5,4.5,4.5H298c2.2,0,4-1,4-3.3c0-2.1-1.7-3.3-4-3.3h-12.8v-24
				c0-2.2-1.6-3.8-3.8-3.8c-2.4,0-3.8,1.6-3.8,3.8V135.5z"/>
			<path class="st1" d="M303.7,134.3c-0.3,0.7-0.7,2.1-0.7,2.9c0,2.1,1.4,3.3,3.6,3.3c1.9,0,2.9-0.7,3.4-2.1l2.1-5.5h12.2l1.9,5.5
				c0.5,1.6,1.7,2.1,3.4,2.1c1.9,0,3.6-1.6,3.6-3.3c0-0.9-0.5-2.2-0.7-2.9l-9.5-25.7c-0.9-2.4-2.4-2.8-4.1-2.8h-1.9
				c-1.9,0-3.1,0.7-3.8,2.4L303.7,134.3z M322.5,127.6h-9l4.5-13.4h0.2L322.5,127.6z"/>
		</g>
	</g>
</g>
</svg>
