<?xml version="1.0" encoding="utf-8"?>
<!-- Generator: Adobe Illustrator 24.0.0, SVG Export Plug-In . SVG Version: 6.00 Build 0)  -->
<svg version="1.1" id="Capa_1" xmlns="http://www.w3.org/2000/svg" xmlns:xlink="http://www.w3.org/1999/xlink" x="0px" y="0px"
	 viewBox="0 0 200 200" style="enable-background:new 0 0 200 200;" xml:space="preserve">
<style type="text/css">
	.st0{fill:#E6372B;}
</style>
<g>
	<g>
		<path class="st0" d="M50.9,54.1c4.2-6.2,6.7-10,10.5-10.1c1-0.1,3.1,0.1,4.9,2.2c2,2.3,2.9,8.4,5.3,38.3c0.1,1.3,0.2,2.6,0.3,4
			c3.3-27.9,4.5-32.8,8.1-34.4c1.5-0.6,3.2-0.4,4.5,0.7c2.5,2,3.8,6.7,6.5,18.8c0.7,3.2,1.7,7.6,2.7,11.2c1.3-6.5,2-16.6,2.6-25.1
			c1.3-18.7,2-23.2,5-25.2c1.2-0.8,2.7-0.9,4-0.4c3.8,1.4,4.5,5.9,6.9,30c0.9,8.6,2.1,21.7,3.6,28.4c2.4-4.3,5.4-11.7,7.2-19
			c-3-1.2-5.9-3.1-7.8-6.3c-3-5.1-3.1-14.5,1.2-18.2c2.6-2.3,5-2.5,6.6-2.3c2.6,0.4,4.8,2.1,6.7,5.1c2.7,4.2,3.1,10.1,2.3,16
			c0.6,0.1,1.2,0.2,1.8,0.3c1-3.8,2.2-6.7,3.2-7.9c6.7-8.4,12-6.8,13.9-5.7c3.6,2,5,6.9,3.2,11.7c-1.7,4.6-6.2,9-14.2,9.8
			c-0.3,1.4-0.6,2.9-0.9,4.5c-0.8,5.1-1.1,8.9-1.1,11.6c0-0.4,5.6-9,10.1-12.1c10.9-7.3,20.1-2.3,20.1-3.1
			c0-37.7-30.6-68.3-68.3-68.3S31.6,39.2,31.6,77c0,1.3,0.1,2.6,0.1,3.9C38.3,71.7,49.8,55.8,50.9,54.1z"/>
		<path class="st0" d="M147,61.5c-0.6,0.2-2,1-3.9,3.5c-0.2,0.4-0.6,1.2-1,2.5c2.4-0.8,3.6-2.1,4.1-3C147,63.3,147.1,62.2,147,61.5z
			"/>
		<path class="st0" d="M121.8,54.6c-0.1,0.1-0.2,0.1-0.4,0.2c-0.9,1.1-1.2,5.9,0.4,8.4c0.6,1,1.5,1.7,2.5,2.3
			c0.4-3.9,0.1-7.3-1.3-9.5C122.4,55.1,122.1,54.7,121.8,54.6z"/>
		<path class="st0" d="M149.2,90c-3.4,3.7-6.8,13.6-13,13.1c-1-0.1-3.5-0.6-5-3.8c-2-4.5-1.1-14.7,0.7-23.7c-0.5-0.1-1-0.2-1.5-0.2
			c-0.4,1.8-0.9,3.5-1.4,5.1c-0.1,0.2-6.2,19.7-12.1,22.2c-1.5,0.6-3.1,0.5-4.4-0.3c-4-2.4-5.4-10.6-8.1-37.7
			c-0.1-1.3-0.2-2.7-0.4-4c-1,13.3-2,27-5,32.8c-1.8,3.7-4.4,4-5.8,3.8c-4.9-0.6-6.6-7.2-10-22.2c-0.4-1.5-0.7-3.4-1.2-5.1
			c-1,6.9-2.1,16-2.9,22.4c-2.5,21.8-3.1,24.7-5.1,26.4c-0.8,0.7-1.7,1-2.7,1c-0.5,0-1-0.1-1.5-0.3c-2.6-1-3.2-3-4.3-13.1
			c-0.6-5.9-1.3-13.4-1.9-21.5C63,74.1,61.8,60,60.8,53.6c-1,1.4-2.3,3.2-3.4,4.8c-1.6,2.3-21.8,30.3-23.9,33.1
			c-0.1,0.1-0.2,0.2-0.3,0.3c6.8,30.5,34,53.4,66.7,53.4c34,0,62.2-24.9,67.4-57.5C161.1,81.7,151.9,87.1,149.2,90z"/>
	</g>
	<g>
		<g>
			<g>
				<path class="st0" d="M132.2,188v0.8h-0.6V183h0.6v2.5c0.3-0.5,0.8-0.9,1.5-0.9c1,0,2,0.8,2,2.1l0,0c0,1.3-1,2.1-2,2.1
					C133,188.8,132.5,188.4,132.2,188z M135.1,186.7L135.1,186.7c0-1-0.7-1.6-1.4-1.6s-1.5,0.6-1.5,1.6l0,0c0,0.9,0.7,1.6,1.5,1.6
					C134.4,188.3,135.1,187.7,135.1,186.7z"/>
				<path class="st0" d="M139.7,184.7h0.7l-1.7,4.2c-0.4,0.9-0.7,1.2-1.3,1.2c-0.4,0-0.6-0.1-0.9-0.2l0.2-0.5
					c0.2,0.1,0.4,0.1,0.6,0.1c0.4,0,0.6-0.2,0.9-0.7l-1.8-4h0.7l1.5,3.4L139.7,184.7z"/>
			</g>
			<g>
				<g>
					<g>
						<path class="st0" d="M150.6,178.9l-3.2,4.7l3.3,5h-3.1l-1.8-2.9l-1.8,2.9h-3.1l3.3-4.9L141,179h3.1l1.7,2.7l1.7-2.7
							L150.6,178.9L150.6,178.9z"/>
						<path class="st0" d="M151.5,181.1h2.6v1c0.5-0.6,1.2-1.2,2.3-1.2c1.8,0,3.3,1.5,3.3,3.9l0,0c0,2.4-1.5,3.9-3.3,3.9
							c-1.1,0-1.8-0.5-2.3-1.1v3.1h-2.6V181.1z M157.1,184.8L157.1,184.8c0-1-0.7-1.7-1.5-1.7s-1.5,0.7-1.5,1.7l0,0
							c0,1,0.7,1.7,1.5,1.7C156.4,186.5,157.1,185.8,157.1,184.8z"/>
						<path class="st0" d="M160.8,181.1h2.6v1.5c0.4-1,1.1-1.7,2.3-1.7v2.8h-0.2c-1.3,0-2.1,0.8-2.1,2.5v2.3h-2.6L160.8,181.1
							L160.8,181.1z"/>
						<path class="st0" d="M166.3,184.8L166.3,184.8c0-2.1,1.7-3.9,4.1-3.9c2.4,0,4.1,1.8,4.1,3.9l0,0c0,2.1-1.7,3.9-4.1,3.9
							S166.3,187,166.3,184.8z M172,184.8L172,184.8c0-1-0.7-1.7-1.6-1.7c-1,0-1.5,0.7-1.5,1.7l0,0c0,0.9,0.7,1.7,1.6,1.7
							C171.3,186.5,172,185.8,172,184.8z"/>
					</g>
					<g>
						<g>
							<path class="st0" d="M173.9,179.9L173.9,179.9c0-1.1,0.9-2.1,2-2.1c1.2,0,2,0.9,2,2l0,0c0,1.1-0.9,2.1-2,2.1
								C174.8,181.9,173.9,181,173.9,179.9z M177.8,179.8L177.8,179.8c0-1-0.8-1.8-1.8-1.8c-1,0-1.8,0.9-1.8,1.8l0,0
								c0,1,0.8,1.8,1.8,1.8C177,181.7,177.8,180.9,177.8,179.8z M175.1,178.7h1c0.5,0,0.9,0.2,0.9,0.7c0,0.4-0.2,0.6-0.5,0.7
								l0.6,0.7h-0.6l-0.4-0.7h-0.3v0.7h-0.6V178.7z M176,179.8c0.2,0,0.4-0.1,0.4-0.3c0-0.2-0.1-0.3-0.4-0.3h-0.4v0.6H176z"/>
						</g>
					</g>
				</g>
			</g>
		</g>
		<g>
			<path class="st0" d="M40.3,156.7c0,0.1,0,0.1,0,0.2c0,0.1,0,0.2-0.1,0.3c0,0.1-0.1,0.2-0.1,0.4c-0.1,0.1-0.1,0.3-0.1,0.5l-5.3,16
				c-0.1,0.2-0.2,0.4-0.2,0.6c-0.1,0.1-0.3,0.2-0.6,0.3c-0.2,0.1-0.6,0.1-1,0.2c-0.4,0-1,0.1-1.7,0.1s-1.3,0-1.7-0.1
				c-0.4-0.1-0.8-0.1-1-0.2c-0.2-0.1-0.4-0.2-0.6-0.3c-0.1-0.1-0.2-0.3-0.2-0.6l-5.3-16c-0.1-0.2-0.1-0.5-0.2-0.7
				c-0.1-0.2-0.1-0.4-0.1-0.4c0-0.1,0-0.2,0-0.2c0-0.1,0.1-0.2,0.1-0.4c0.1-0.1,0.2-0.2,0.4-0.2c0.2-0.1,0.4-0.1,0.8-0.1
				c0.3,0,0.7-0.1,1.2-0.1c0.6,0,1,0,1.3,0.1s0.6,0.1,0.8,0.1c0.2,0.1,0.3,0.1,0.4,0.2c0.1,0.1,0.1,0.2,0.2,0.4l4,13l0.1,0.5
				l0.1-0.5l4-13c0.1-0.2,0.1-0.3,0.2-0.4c0.1-0.1,0.2-0.2,0.4-0.2c0.2-0.1,0.4-0.1,0.7-0.1c0.3-0.1,0.7-0.1,1.2-0.1s0.9,0,1.2,0.1
				c0.3,0,0.6,0.1,0.7,0.1c0.2,0.1,0.3,0.1,0.4,0.2C40.2,156.5,40.3,156.6,40.3,156.7z"/>
			<path class="st0" d="M71,174.5c0,0.1-0.1,0.2-0.1,0.4c-0.1,0.1-0.2,0.2-0.4,0.2c-0.2,0.1-0.4,0.1-0.7,0.1
				c-0.3,0.1-0.7,0.1-1.2,0.1s-0.9,0-1.2-0.1s-0.6-0.1-0.8-0.1c-0.2-0.1-0.3-0.1-0.4-0.2c-0.1-0.1-0.1-0.2-0.1-0.4v-10.5
				c0-0.6-0.1-1.2-0.2-1.7c-0.1-0.5-0.3-0.9-0.5-1.3c-0.2-0.4-0.6-0.6-0.9-0.8c-0.4-0.2-0.8-0.3-1.3-0.3c-0.6,0-1.2,0.2-1.8,0.7
				c-0.6,0.5-1.3,1.2-2,2v11.8c0,0.1-0.1,0.2-0.1,0.4c-0.1,0.1-0.2,0.2-0.4,0.2c-0.2,0.1-0.4,0.1-0.8,0.1c-0.3,0.1-0.7,0.1-1.2,0.1
				c-0.5,0-0.9,0-1.2-0.1s-0.6-0.1-0.8-0.1c-0.2-0.1-0.3-0.1-0.4-0.2c-0.1-0.1-0.1-0.2-0.1-0.4v-10.5c0-0.6-0.1-1.2-0.2-1.7
				c-0.1-0.5-0.3-0.9-0.5-1.3c-0.2-0.4-0.5-0.6-0.9-0.8c-0.4-0.2-0.8-0.3-1.2-0.3c-0.6,0-1.2,0.2-1.8,0.7c-0.6,0.5-1.3,1.2-2,2v11.8
				c0,0.1-0.1,0.2-0.1,0.4c-0.1,0.1-0.2,0.2-0.4,0.2c-0.2,0.1-0.4,0.1-0.8,0.1c-0.3,0.1-0.7,0.1-1.2,0.1c-0.5,0-0.9,0-1.2-0.1
				s-0.6-0.1-0.8-0.1c-0.2-0.1-0.3-0.1-0.4-0.2c-0.1-0.1-0.1-0.2-0.1-0.4v-17.7c0-0.1,0.1-0.2,0.1-0.4c0.1-0.1,0.2-0.2,0.4-0.2
				c0.2-0.1,0.4-0.1,0.7-0.1c0.2-0.1,0.6-0.1,1-0.1c0.4,0,0.8,0,1,0.1c0.3,0.1,0.5,0.1,0.7,0.1c0.1,0.1,0.2,0.1,0.3,0.2
				c0.1,0.1,0.1,0.2,0.1,0.4v2c1-1,2-1.8,2.9-2.4s2-0.8,3.1-0.8c0.7,0,1.4,0.1,2,0.2c0.6,0.1,1.1,0.4,1.5,0.7s0.9,0.6,1.2,1
				c0.3,0.4,0.6,0.9,0.9,1.3c0.6-0.6,1-1,1.5-1.5s1-0.7,1.5-1s1-0.4,1.5-0.6s1-0.2,1.5-0.2c1.2,0,2.2,0.2,3,0.6
				c0.8,0.4,1.5,0.9,2,1.6c0.5,0.7,0.9,1.5,1,2.4c0.2,0.9,0.3,1.9,0.3,2.9v11.4H71z"/>
			<path class="st0" d="M86.9,158.4c0,0.5,0,0.9-0.1,1.2c0,0.3-0.1,0.6-0.1,0.7s-0.1,0.3-0.2,0.4c-0.1,0.1-0.2,0.1-0.3,0.1
				s-0.2,0-0.4-0.1c-0.1-0.1-0.3-0.1-0.4-0.1c-0.2-0.1-0.4-0.1-0.6-0.1c-0.2-0.1-0.4-0.1-0.7-0.1c-0.3,0-0.6,0.1-0.9,0.2
				c-0.3,0.1-0.6,0.3-0.9,0.6c-0.3,0.2-0.6,0.6-0.9,1c-0.3,0.4-0.7,0.9-1,1.5v11.1c0,0.1-0.1,0.2-0.1,0.4c-0.1,0.1-0.2,0.2-0.4,0.2
				c-0.2,0.1-0.4,0.1-0.8,0.1c-0.3,0.1-0.7,0.1-1.2,0.1c-0.5,0-0.9,0-1.2-0.1c-0.3-0.1-0.6-0.1-0.8-0.1c-0.2-0.1-0.3-0.1-0.4-0.2
				c-0.1-0.1-0.1-0.2-0.1-0.4V157c0-0.1,0.1-0.2,0.1-0.4s0.2-0.2,0.4-0.2c0.2-0.1,0.4-0.1,0.7-0.1c0.2-0.1,0.6-0.1,1-0.1
				s0.8,0,1,0.1c0.3,0.1,0.5,0.1,0.7,0.1c0.1,0.1,0.2,0.1,0.3,0.2c0.1,0.1,0.1,0.2,0.1,0.4v2.2c0.5-0.7,0.9-1.2,1.3-1.7
				c0.4-0.4,0.8-0.8,1.2-1c0.4-0.2,0.7-0.4,1.1-0.6c0.4-0.1,0.7-0.1,1.1-0.1c0.2,0,0.4,0,0.6,0s0.4,0.1,0.6,0.1s0.4,0.1,0.6,0.2
				c0.2,0.1,0.2,0.1,0.4,0.2c0.1,0.1,0.1,0.1,0.2,0.2c0.1,0.1,0.1,0.2,0.1,0.3s0.1,0.4,0.1,0.6C86.9,157.6,86.9,158,86.9,158.4z"/>
			<path class="st0" d="M103,174.8c0,0.1-0.1,0.2-0.1,0.3c-0.1,0.1-0.2,0.1-0.4,0.2c-0.1,0.1-0.3,0.1-0.6,0.1s-0.4,0-0.6-0.1
				c-0.2-0.1-0.3-0.1-0.4-0.2c-0.1-0.1-0.1-0.2-0.1-0.3v-2c-0.8,0.9-1.7,1.5-2.7,2s-2,0.7-3.1,0.7c-0.9,0-1.8-0.1-2.6-0.4
				c-0.7-0.2-1.4-0.6-1.9-1c-0.5-0.5-0.9-1-1.2-1.7c-0.3-0.7-0.4-1.4-0.4-2.2c0-1,0.2-1.8,0.6-2.6c0.4-0.7,1-1.3,1.8-1.8
				c0.7-0.5,1.7-0.9,2.8-1.1c1-0.2,2.3-0.4,3.5-0.4h2.9v-1.6c0-0.8-0.1-1.5-0.2-2c-0.2-0.6-0.4-1.1-0.8-1.5
				c-0.4-0.4-0.8-0.7-1.4-0.9c-0.6-0.2-1.3-0.3-2.1-0.3c-0.8,0-1.5,0.1-2.1,0.3s-1.2,0.4-1.7,0.7c-0.5,0.2-0.9,0.4-1.2,0.7
				c-0.3,0.2-0.6,0.3-0.7,0.3c-0.1,0-0.2,0-0.2-0.1c-0.1,0-0.1-0.1-0.2-0.1c-0.1-0.1-0.1-0.2-0.1-0.3c0-0.1,0-0.2,0-0.4
				c0-0.3,0-0.5,0.1-0.7s0.1-0.3,0.3-0.5c0.2-0.2,0.5-0.4,0.9-0.6s0.9-0.4,1.5-0.6c0.6-0.2,1.2-0.4,1.8-0.5s1.3-0.2,1.9-0.2
				c1.2,0,2.3,0.1,3.1,0.4c0.9,0.3,1.5,0.7,2.1,1.3c0.6,0.6,0.9,1.2,1.1,2.1c0.2,0.8,0.4,1.8,0.4,2.8L103,174.8L103,174.8z
				 M100.6,166.3h-3.3c-1,0-1.8,0.1-2.5,0.2c-0.7,0.2-1.3,0.4-1.8,0.7c-0.5,0.3-0.9,0.7-1,1.2c-0.2,0.5-0.4,1-0.4,1.6
				c0,1,0.3,1.8,1,2.5c0.7,0.6,1.6,0.9,2.8,0.9c0.9,0,1.8-0.2,2.6-0.7c0.8-0.5,1.7-1.2,2.6-2.3L100.6,166.3L100.6,166.3z"/>
			<path class="st0" d="M123.7,174.8c0,0.1,0,0.2-0.1,0.2c-0.1,0.1-0.1,0.1-0.2,0.2c-0.1,0.1-0.2,0.1-0.4,0.1
				c-0.1,0-0.3,0.1-0.6,0.1s-0.4,0-0.6-0.1c-0.1,0-0.2-0.1-0.4-0.1c-0.1-0.1-0.1-0.1-0.2-0.2c-0.1-0.1-0.1-0.1-0.1-0.2v-2.6
				c-1,1.2-2.1,2-3.1,2.5c-1,0.5-2,0.8-2.9,0.8c-1.2,0-2.2-0.2-3-0.6c-0.8-0.4-1.5-0.9-2-1.7c-0.5-0.7-0.9-1.5-1.1-2.4
				c-0.2-0.9-0.3-2-0.3-3.2v-10.9c0-0.1,0-0.2,0.1-0.2c0.1-0.1,0.1-0.1,0.2-0.2c0.1-0.1,0.2-0.1,0.4-0.1c0.1,0,0.4,0,0.6,0
				c0.2,0,0.4,0,0.6,0c0.1,0,0.2,0.1,0.4,0.1c0.1,0.1,0.1,0.1,0.2,0.2c0.1,0.1,0.1,0.1,0.1,0.2v10.7c0,1.1,0.1,2,0.2,2.8
				c0.2,0.7,0.4,1.3,0.8,1.8c0.4,0.5,0.8,0.9,1.3,1.2c0.6,0.2,1.2,0.4,1.9,0.4c0.9,0,1.8-0.3,2.8-1s1.9-1.6,2.9-2.9v-13
				c0-0.1,0-0.2,0.1-0.2c0.1-0.1,0.1-0.1,0.2-0.2c0.1-0.1,0.2-0.1,0.4-0.1c0.1,0,0.4,0,0.6,0s0.4,0,0.6,0s0.2,0.1,0.4,0.1
				c0.1,0.1,0.1,0.1,0.2,0.2c0.1,0.1,0.1,0.1,0.1,0.2L123.7,174.8L123.7,174.8z"/>
			<path class="st0" d="M144.5,174.8c0,0.1,0,0.2-0.1,0.2c-0.1,0.1-0.1,0.1-0.2,0.2c-0.1,0.1-0.2,0.1-0.3,0.1s-0.3,0-0.5,0
				s-0.4,0-0.6,0c-0.1,0-0.2-0.1-0.4-0.1c-0.1-0.1-0.2-0.1-0.2-0.2s-0.1-0.1-0.1-0.2v-2.6c-1,1-2,1.8-3,2.4c-1,0.6-2.1,0.9-3.4,0.9
				c-1.3,0-2.4-0.2-3.3-0.7c-0.9-0.5-1.7-1.2-2.3-2.1c-0.6-0.9-1-1.9-1.3-3.1c-0.2-1.2-0.4-2.4-0.4-3.7c0-1.5,0.2-2.9,0.5-4.2
				c0.3-1.2,0.8-2.3,1.5-3.1c0.7-0.9,1.5-1.5,2.4-2c1-0.5,2.1-0.7,3.3-0.7c1.1,0,2.1,0.2,3,0.7s1.8,1.2,2.7,2.1V148
				c0-0.1,0-0.2,0.1-0.2s0.1-0.1,0.2-0.2c0.1-0.1,0.2-0.1,0.4-0.1c0.1,0,0.4-0.1,0.6-0.1c0.2,0,0.4,0,0.6,0.1c0.1,0,0.2,0.1,0.4,0.1
				c0.1,0.1,0.1,0.1,0.2,0.2c0.1,0.1,0.1,0.1,0.1,0.2v26.8H144.5z M142.1,161.7c-1-1.2-2-2.1-2.9-2.8c-0.9-0.6-1.9-1-2.9-1
				c-0.9,0-1.7,0.2-2.3,0.7c-0.7,0.4-1.2,1-1.6,1.7c-0.4,0.7-0.7,1.5-0.9,2.4s-0.3,1.8-0.3,2.8c0,1,0.1,2,0.2,2.9
				c0.2,0.9,0.4,1.8,0.8,2.5s0.9,1.3,1.5,1.8c0.6,0.4,1.4,0.7,2.4,0.7c0.5,0,0.9-0.1,1.4-0.2c0.4-0.1,0.9-0.4,1.4-0.7
				c0.5-0.3,1-0.7,1.5-1.2c0.5-0.5,1-1.1,1.7-1.8V161.7L142.1,161.7z"/>
			<path class="st0" d="M153.5,150.6c0,0.6-0.1,1.1-0.4,1.3c-0.2,0.2-0.6,0.4-1.2,0.4c-0.6,0-1-0.1-1.2-0.3
				c-0.2-0.2-0.3-0.7-0.3-1.3c0-0.6,0.1-1.1,0.4-1.3c0.2-0.2,0.6-0.4,1.2-0.4c0.6,0,1,0.1,1.2,0.3
				C153.4,149.6,153.5,150,153.5,150.6z M153.1,174.8c0,0.1,0,0.2-0.1,0.2c-0.1,0.1-0.1,0.1-0.2,0.2c-0.1,0.1-0.2,0.1-0.4,0.1
				c-0.2,0-0.4,0.1-0.6,0.1c-0.2,0-0.4,0-0.6-0.1c-0.2,0-0.3-0.1-0.4-0.1c-0.1-0.1-0.2-0.1-0.2-0.2c-0.1-0.1-0.1-0.1-0.1-0.2v-18
				c0-0.1,0-0.2,0.1-0.2c0.1-0.1,0.1-0.1,0.2-0.2c0.1-0.1,0.2-0.1,0.4-0.1c0.1,0,0.4,0,0.6,0c0.2,0,0.4,0,0.6,0s0.2,0.1,0.4,0.1
				c0.1,0.1,0.1,0.1,0.2,0.2s0.1,0.1,0.1,0.2V174.8z"/>
			<path class="st0" d="M175.3,165.5c0,1.4-0.2,2.8-0.6,4s-0.9,2.3-1.7,3.2c-0.7,0.9-1.7,1.6-2.8,2.1c-1.1,0.5-2.4,0.7-3.9,0.7
				c-1.4,0-2.6-0.2-3.7-0.7s-2-1.1-2.6-1.9c-0.7-0.9-1.2-1.8-1.6-3s-0.6-2.5-0.6-4c0-1.4,0.2-2.8,0.6-4c0.4-1.2,0.9-2.3,1.7-3.1
				c0.7-0.9,1.7-1.6,2.8-2.1c1.1-0.5,2.4-0.7,3.9-0.7c1.4,0,2.6,0.2,3.7,0.7c1,0.4,2,1.1,2.6,1.9c0.7,0.9,1.2,1.8,1.6,3
				C175.1,162.7,175.3,164.1,175.3,165.5z M172.8,165.8c0-1-0.1-2-0.3-2.9c-0.2-0.9-0.6-1.8-1-2.4c-0.5-0.7-1.1-1.3-1.9-1.7
				c-0.8-0.4-1.8-0.6-2.9-0.6c-1.1,0-2,0.2-2.8,0.6c-0.8,0.4-1.4,0.9-1.9,1.6s-0.9,1.5-1.1,2.4c-0.2,0.9-0.4,2-0.4,3s0.1,2,0.3,2.9
				c0.2,0.9,0.6,1.8,1,2.4c0.4,0.7,1.1,1.3,1.9,1.7c0.8,0.4,1.8,0.6,2.9,0.6c1.1,0,2-0.2,2.8-0.6c0.8-0.4,1.4-0.9,1.9-1.6
				c0.5-0.7,0.9-1.5,1.1-2.4S172.8,166.9,172.8,165.8z"/>
		</g>
	</g>
</g>
</svg>
