<?xml version="1.0" encoding="utf-8"?>
<!-- Generator: Adobe Illustrator 24.0.0, SVG Export Plug-In . SVG Version: 6.00 Build 0)  -->
<svg version="1.1" id="Capa_1" xmlns="http://www.w3.org/2000/svg" xmlns:xlink="http://www.w3.org/1999/xlink" x="0px" y="0px"
	 viewBox="0 0 200 200" style="enable-background:new 0 0 200 200;" xml:space="preserve">
<style type="text/css">
	.st0{fill:#FF020D;}
	.st1{fill:#1E1E1E;}
</style>
<g>
	<g>
		<g>
			<path class="st0" d="M29.5,93.3c-1.1,0.1-10.6,3.6-12.5,4.2c0-0.9-2.3-51.8-0.7-58.8c2.1-8.3,7.6,34.1,7.6,34.1s7.8-6.2,7.5-9
				c-0.8-7.8-2.6-16.3-4.1-22.6c-3.1-12.8-6.8-17.1-9.6-17.5C6,23.7,6.1,72.2,7,100.9c-0.5,0.2-3.5,1-6.3,2
				c0.1,2.5,0.6,10.1,0.6,10.1l6.8-2.2l4.4,65.5l10.9-3.7l-5.6-64.9c0,0,7-2.4,9.6-3.3C26.5,97.4,30.6,93.3,29.5,93.3z"/>
			<path class="st0" d="M65.5,94.3c0,0,2.6-1.4,2.6-2.5c0.1-0.6,0-1.4-0.3-2.4c-0.9-2.5-6.2-2.6-10.2-3.3
				c-27.6-4.1-27.6,20.5-27.1,24c0.8,7.2,5.2,12.1,13.4,13.7c8.3,1.2,13-8.3,14.2-9.8c1.8,3.2,3.2,6,4.4,7.5
				c1.6-0.5,5.8-1.9,5.8-1.9S61.2,96.7,65.5,94.3z M53.9,99.4c-3.6,17-8.3,17.5-9,17.4c-4.1-0.7-5.4-5.4-3.9-14
				c0.7-3.8,2.1-6.8,4.3-8.9C52.9,86.5,54.8,94.9,53.9,99.4z"/>
			<path class="st0" d="M135.1,82.3c-7.3,1.2-22,6.5-26,10.7c0,0,2.4-7.4,0.3-12.4c-2.2-5.5-29,14.6-31.2,16.7
				c-0.1-1-0.2-4.2-2.3-4.4c-1.1-0.1-5,2.2-6.2,3.3c-0.8,0.7-1.2,1-0.9,3.6c0.1,1,3.6,28,5.2,27.7c1.5-0.5,5.9-1.7,6.9-2.1
				c-0.7-2.4-2.6-15.9-2.6-15.9c-0.2-3.7,8.1-9.4,11-12c3.2-2.2,8.2-5.7,10.3-5.9c2.1-0.2-7.8,30.3-9,34.9c2.3-0.8,7.4-2.5,9.3-3.1
				c1.8-5.9,3.9-13,6-19.2c1.5-4.7,6.8-6.8,8.7-7.7c1.8-0.8,5.5-2,7.3-2.4c1.8-0.4-18.7,40.6-24.9,74.6c0,0,5.9-2,8.4-2.8
				C119.4,100.5,142.4,81.1,135.1,82.3z"/>
			<path class="st0" d="M169.3,94.3c-0.6-2.6-5.8-3.5-9.7-4.7c-26.8-7.8-30.1,16.6-30,20.1c0.1,7.2,4.7,13.2,11.5,15.4
				c2.9,0.9,5.7,0.5,8.6-1.5c1.1-0.7,5.4-5,6.8-6.3c1.6,4.1,2.8,7.5,4,8.9c0.8-0.3,3.6-1.2,5.3-1.7c0.7-1.9-1.7-24.5,0.7-25.3l1-0.5
				c1.3-0.7,1.6-1.2,1.9-1.9C169.4,96,169.4,95.2,169.3,94.3z M153.2,101.1c-3.6,17-8.7,17.5-9,17.4c-4.1-0.7-5.4-5.4-3.9-14
				c0.7-3.8,2.1-6.8,4.3-8.9C152.2,88.2,154.1,96.6,153.2,101.1z"/>
		</g>
		<g>
			<path class="st1" d="M63.9,42.6c0,0.5,0,2.7,0.2,3.7c0.1,1.2,4.9,3.9,6.3,4.7c0.4,0.2,0.9,0.4,1.1,0.4c0.3,0.1,2.1,0.5,3.1,0.4
				c0.5-0.1,0.5-0.4,0.4-1.6c0-0.9-0.2-3-0.3-5.2c-0.2-3-0.1-5.7,1.5-5.7c1.6,0,3.9,0.6,4.7,0.9c0.6,0.2,0.9,1,1,1.6
				c0,0.4,0.4,3.1,0.5,4.6c0,0.8-0.5,1.4-0.6,1.6c0,0-3.9,4.2-4,4.2c-0.1,0.1-0.1,0.1,0,0.1c0,0,0.2,0,0.2,0
				c0.4-0.3,3.8-2.5,4.9-3.2c0.2-0.1,0.4-0.3,0.6-0.5c0.2-0.3,0.4-1,0.3-2.3c-0.1-1.5-0.3-4.8-0.3-4.8c0-0.5-0.3-1.7-1.6-2.4
				c-3.1-1.7-5.7-1.5-6.2-1.5c-1.3,0.1-2.5,0.2-5.3,1c-2.4,0.7-4.4,1.6-5.7,3C64.3,41.7,64,41.9,63.9,42.6z"/>
			<path class="st1" d="M106.2,48.5c-0.1,0.5,0,2.7,0.2,3.7c0.1,1.2,4.9,3.9,6.3,4.7c0.4,0.2,0.9,0.4,1.1,0.4
				c0.3,0.1,2.1,0.5,3.1,0.4c0.5-0.1,0.5-0.4,0.4-1.6c0-0.9-0.2-3-0.3-5.2c-0.2-3-0.1-5.7,1.5-5.7c1.6-0.1,3.9,0.6,4.7,0.9
				c0.6,0.2,0.9,1,1,1.6c0,0.4,0.4,3.1,0.5,4.6c0,0.8-0.5,1.4-0.6,1.6c0,0-3.9,4.2-4,4.2c-0.1,0.1-0.1,0.1,0,0.1c0,0,0.2,0,0.2,0
				c0.4-0.3,3.8-2.5,4.9-3.2c0.2-0.1,0.4-0.3,0.6-0.5c0.2-0.3,0.4-1,0.3-2.3c-0.1-1.5-0.3-4.8-0.3-4.8c0-0.5-0.3-1.7-1.6-2.4
				c-3.1-1.7-5.7-1.5-6.2-1.5c-1.3,0.1-2.5,0.2-5.3,1c-2.4,0.7-4.4,1.6-5.7,3C106.5,47.5,106.2,47.7,106.2,48.5z"/>
			<path class="st1" d="M145.2,50.4c0,0.5,0,2.6,0.2,3.7c0.1,1.2,4.9,3.9,6.3,4.7c0.4,0.2,0.9,0.4,1.1,0.4c0.3,0.1,2.1,0.5,3.1,0.4
				c0.5-0.1,0.5-0.4,0.4-1.6c0-0.9-0.2-3-0.3-5.2c-0.2-3-0.1-5.7,1.5-5.7c1.6-0.1,3.9,0.6,4.7,0.9c0.6,0.2,0.9,1,1,1.6
				c0,0.4,0.4,3.1,0.5,4.6c0,0.8-0.5,1.4-0.6,1.6c0,0-3.9,4.2-4,4.2c-0.1,0.1-0.1,0.1,0,0.1c0,0,0.2,0,0.2,0
				c0.4-0.3,3.8-2.5,4.9-3.2c0.2-0.1,0.5-0.3,0.6-0.5c0.2-0.3,0.4-1,0.3-2.3c-0.1-1.5-0.3-4.8-0.3-4.8c0-0.5-0.3-1.7-1.6-2.4
				c-3.1-1.7-5.7-1.5-6.2-1.5c-1.3,0.1-2.5,0.2-5.3,1c-2.4,0.7-4.4,1.6-5.7,3C145.6,49.4,145.3,49.6,145.2,50.4z"/>
			<path class="st1" d="M199.1,66.5c-0.4-1-1.2-1.5-3.7-1.3c-0.9,0.1-15.3,1-35.3,1c-0.8,0-1-0.8-1-0.8v0c0-0.7,0-1.4,0-2
				c0-0.4-0.3-1.2-0.9-1.2c-0.7,0-3.2,0.2-4.6-0.3c-1.2-0.5-2.2-1.1-2.7-1.4l-6.4-4.2c0,0-1.1-0.5-1.1-1.8c0-1.1-0.3-3.4-0.1-4.3
				c0.1-0.6,0.3-1.2,1.2-2c0.9-0.8,2.7-1.8,3.7-2c0.2-0.1,0.1-0.3-0.1-0.2c-1.9,0.3-3.4,1-4.2,1.6c-0.9,0.6-1.3,1.4-1.4,2
				c-0.1,0.4-0.2,1.2-0.2,1.4c0,0.9,0.1,2.7,0.2,3.7c0,1.5,1.2,2.4,1.3,2.4l6.6,4.5c0.8,0.5,1.6,1.2,1.9,1.9
				c0.2,0.6,0.3,1.2,0.2,1.8c0,0.3-0.2,1-1.4,1.1c-9.3-0.1-19.5-0.5-29.9-1.3c-0.8-0.1-0.9-0.9-0.9-0.9c0-0.8,0-1.7,0-2.4
				c0-0.4-0.3-1.2-1-1.2c-0.7,0-3.2,0.2-4.6-0.3c-1.2-0.5-2.2-1.1-2.7-1.4l-6.4-4.2c0,0-1.1-0.5-1.1-1.8c0-1.1-0.3-3.4-0.1-4.3
				c0.1-0.6,0.3-1.2,1.2-2c0.9-0.8,2.7-1.8,3.7-2c0.2-0.1,0.1-0.3-0.1-0.2c-1.9,0.3-3.4,1-4.2,1.6c-0.9,0.6-1.3,1.4-1.4,2
				c-0.1,0.4-0.2,1.2-0.2,1.4c0,0.9,0.1,2.7,0.2,3.7c0,1.5,1.2,2.4,1.3,2.4l6.6,4.5c0.8,0.5,1.6,1.2,1.9,1.9
				c0.3,0.6,0.3,1.3,0.2,1.9c0,0.2-0.2,0.9-1.5,0.8c-11.2-1-22.5-2.6-33-4.7c-0.8-0.1-0.9-1-0.9-1l0,0c0-0.9,0-1.9,0-2.8
				c0-0.4-0.3-1.2-1-1.2c-0.6,0-3.2,0.2-4.6-0.3c-1.2-0.5-2.2-1.1-2.7-1.4l-6.4-4.2c0,0-1.1-0.5-1.1-1.8c0-1.1-0.3-3.4-0.1-4.3
				c0.1-0.6,0.3-1.2,1.2-2c0.9-0.8,2.7-1.8,3.7-2c0.2-0.1,0.1-0.3-0.1-0.2c-1.9,0.3-3.4,1-4.2,1.6c-0.9,0.6-1.3,1.4-1.4,2
				c-0.1,0.4-0.2,1.2-0.2,1.4c0,0.9,0.1,2.7,0.2,3.7c0,1.5,1.2,2.4,1.3,2.4l6.6,4.5c0.8,0.5,1.6,1.2,1.9,1.9
				c0.1,0.3,0.2,0.6,0.2,0.9c0,0.3,0,1.2-1.7,0.8c-7.1-1.8-13.8-4-19.7-6.6c-3.3-1.4-6.1-0.8-8.1,2.9c-2.2,4-7.3,17.3-17,22.2
				c-0.2,0.1-0.1,0.3,0.2,0.2c8.8-3.1,15.7-8.2,20.4-20.3c0.4-0.9,1.2-1.6,2.4-1.1c57.5,23,126.7,12.5,147.2,13.2
				c4.1,0.1,0.7,5.7-0.5,7.6c-1.8,2.9-12.2,17.6-14.3,20.2c-2.1,2.6-7.8,9-8.2,16c-0.5,11,13.1,14.4,13.1,14.4
				c0.6-0.1,0-0.7-1.4-2.3c-2-2.8-6.1-9-5.3-13.6c0.9-4.6,7.2-13.4,13.7-24.5c4.5-8.6,6.3-12.6,6.9-14.6
				C199.5,68.8,199.4,67.3,199.1,66.5z"/>
		</g>
	</g>
</g>
</svg>
