<?xml version="1.0" encoding="utf-8"?>
<!-- Generator: Adobe Illustrator 24.0.0, SVG Export Plug-In . SVG Version: 6.00 Build 0)  -->
<svg version="1.1" id="Capa_1" xmlns="http://www.w3.org/2000/svg" xmlns:xlink="http://www.w3.org/1999/xlink" x="0px" y="0px"
	 viewBox="0 0 296.7 200" style="enable-background:new 0 0 296.7 200;" xml:space="preserve">
<style type="text/css">
	.st0{fill:#010000;}
	.st1{font-family:'Gotham-Book';}
	.st2{font-size:10.8538px;}
	.st3{font-family:'Gotham-Black';}
	.st4{font-size:18.9851px;}
	.st5{font-family:'Gotham-Medium';}
	.st6{font-size:16.1772px;}
</style>
<g>
	<g id="XMLID_3_">
		<path id="XMLID_11_" d="M79.8,167.2v-12.5h1.3v11.1h5v1.3H79.8z"/>
		<path id="XMLID_10_" d="M98.7,167.4v-12.5h1.5v12.5H98.7z"/>
		<path id="XMLID_9_" d="M119.9,167.4l-0.1-1.8c-0.3,0.6-0.6,1.2-1,1.5c-0.4,0.3-1,0.6-1.8,0.4c-1.3,0-2.4-0.6-3-1.6
			c-0.6-1-0.9-2.8-0.9-5c0-2.2,0.3-3.9,1-4.9c0.7-1,1.8-1.5,3.3-1.5c1.2,0,2.1,0.3,2.7,1s0.9,1.6,0.9,2.8h-1.3
			c0-0.9-0.3-1.5-0.6-1.9c-0.4-0.4-0.9-0.7-1.6-0.7c-1,0-1.6,0.4-2.1,1.3c-0.4,0.9-0.6,2.4-0.6,4.5c0,1.6,0.1,3,0.6,3.7
			c0.4,0.7,1,1.2,2.1,1.2c0.9,0,1.5-0.3,1.9-0.9c0.4-0.6,0.6-1.5,0.6-2.7c0-0.1,0-0.3,0-0.3c0-0.1,0-0.1,0-0.3h-2.8v-1.3h4.2v6.5
			L119.9,167.4z"/>
		<path id="XMLID_8_" d="M134,167.5V155h1.5v5.2h4.6V155h1.5v12.5h-1.5v-6.1h-4.6v6.1H134z"/>
		<path id="XMLID_7_" d="M157,167.5v-11.3h-3.3v-1.3h7.6v1.3h-3v11.3H157z"/>
		<path id="XMLID_6_" d="M173.6,167.7v-12.5h1.5v12.5H173.6z"/>
		<path id="XMLID_5_" d="M188.1,167.7v-12.5h1.9l4.3,10.8l-0.1-10.7h1.3v12.5h-1.8l-4.3-11.1l0.1,11.1L188.1,167.7z"/>
		<path id="XMLID_4_" d="M215.3,167.7l-0.1-1.8c-0.3,0.6-0.6,1.2-1,1.5c-0.4,0.3-1,0.6-1.8,0.4c-1.3,0-2.4-0.6-3-1.6
			c-0.6-1-0.9-2.8-0.9-5s0.3-3.9,1-4.9s1.8-1.5,3.3-1.5c1.2,0,2.1,0.3,2.7,1c0.6,0.7,0.9,1.6,0.9,2.8H215c0-0.9-0.3-1.5-0.6-1.9
			c-0.4-0.4-0.9-0.7-1.6-0.7c-1,0-1.6,0.4-2.1,1.3c-0.4,0.9-0.6,2.4-0.6,4.5c0,1.6,0.1,3,0.6,3.7c0.4,0.7,1,1.2,2.1,1.2
			c0.9,0,1.5-0.3,1.9-0.9c0.4-0.6,0.6-1.5,0.6-2.7c0-0.1,0-0.3,0-0.3c0-0.1,0-0.1,0-0.3h-2.8v-1.3h4.2v6.5L215.3,167.7z"/>
	</g>
	<path id="XMLID_2_" d="M180.7,10.8l-64.1-0.1c-8.5,0-15.4,6.8-15.4,15.3l-0.3,64.1c0,8.5,6.8,15.4,15.3,15.4l64.2,0.1
		c8.5,0,15.4-6.8,15.4-15.3l0.1-64.2C196.1,17.8,189.2,10.8,180.7,10.8z M129.2,17.1c0-0.1,0-0.3,0-0.4c4.3,0,8.5,0,12.8,0
		c0,0.1,0,0.3,0,0.6c0,8.8,0,17.4-0.1,26.1c0,2.7-1.2,4.6-3.6,5.8c-2.4,1.2-4.6,0.9-6.7-0.7c-1.6-1.2-2.5-3-2.5-5
		C129.1,34.7,129.2,26,129.2,17.1z M116,50.9c-2.7-2.7-4.5-5.8-5-9.5c-1.2-7.7,3.3-15.4,10.5-18c1-0.4,2.2-0.6,3.4-0.9
		c0,0.4,0,0.6,0,0.9c0,6.7,0,13.2,0,19.9c0,4.2,1.8,7.3,5.3,9.5c6.1,3.7,14.4-0.1,15.6-7.3c0.1-0.7,0.1-1.5,0.1-2.2c0-2.7,0-5.3,0-8
		c0-0.1,0-0.3,0-0.4c10.4,10.5,20.8,20.9,31.2,31.3c-7.7,7.7-15.4,15.4-23.3,23.1c0,0-0.1-0.1-0.3-0.3
		C141.1,76.1,128.5,63.5,116,50.9z M150.4,99.6c-0.6-0.6-1.3-1.3-2.1-2.1c11.9-11.9,23.9-23.7,35.9-35.6c0.7,0.7,1.3,1.3,2.1,2.1
		C174.3,75.8,162.3,87.8,150.4,99.6z"/>
	<g>
		<path d="M19.6,123c-3.1-0.7-6.1-1.5-6.1-2.8c0-0.9,1.5-1,2.7-1c1,0,1.8,0.1,2.5,0.6c0.6,0.3,1,0.9,1.2,1.6l0.1,0.7h12.6l-0.1-1
			c-1-7.4-6.7-11.9-15.7-11.9c-9.8,0-16,4.6-16,12c0,8.9,8,10.8,13.9,12.2c3,0.7,5.9,1.5,5.9,2.7c0,1.2-2.1,1.6-3.7,1.6
			c-1,0-2.1-0.3-2.7-0.7c-0.7-0.4-1.2-1.2-1.5-2.1l-0.1-0.7H0v1c0.3,7.3,7.1,12.5,16.2,12.6c10.7,0,17.2-4.7,17.2-12.8
			C33.4,126.4,25.4,124.5,19.6,123z"/>
		<path d="M53.6,110.4H35.9l-0.1,36.5H49V136h4.7c9.9,0,15.3-4.6,15.4-13.1C69.3,115,63.5,110.4,53.6,110.4z M49.1,120.3h2.2
			c5.2,0,5,2.1,5,2.7c0,1.5-0.4,3.1-3.7,3.1H49L49.1,120.3z"/>
		<polygon points="84.7,133.4 99,133.5 99,123.6 84.7,123.4 84.7,120.5 101.6,120.5 101.6,110.5 71.5,110.4 71.4,146.9 102.2,147 
			102.2,137.1 84.7,136.9 		"/>
		<path d="M127.6,132.6c-0.3,2.4-1.3,5-4.9,5c-4.2,0-5.9-2.5-5.9-8.5c0-3.4,0.7-9.2,5.5-9.2c3.1,0,4.9,1.8,5.2,4.9l0.1,0.9h12.6
			l-0.1-1c-0.9-9.6-7.4-15-18.2-15c-10.7,0-18.2,7.9-18.2,19.1c0,11.9,7.3,19.3,19.3,19.3c9.8,0,16.5-5.8,17.5-15.1l0.1-1h-12.8
			L127.6,132.6z"/>
		<polygon points="141.5,121.7 151.6,121.7 151.6,147.2 164.8,147.2 165,121.7 175.1,121.7 175.2,110.7 141.5,110.7 		"/>
		<path d="M211.4,144.5c-0.3-0.4-0.1-2.1-0.1-3.9v-1.2c0-5.9-1.6-7.9-4.3-9.2c2.8-1.6,4.3-4.6,4.3-8.5c0-7.7-4.7-10.8-16.3-10.8
			h-17.4l-0.1,36.5h13.2v-12h2.5c4.6,0,5,1,5,5c0,2.8,0.3,5.3,0.6,6.4l0.3,0.6h13.1v-3L211.4,144.5L211.4,144.5z M199,123.4
			c0,0.7,0,2.4-4.5,2.4H191v-5h4.3C196.6,120.8,199,121.1,199,123.4z"/>
		<path d="M237.5,132.6c0,3.9-1.3,5.3-4.3,5.3c-3.7,0-4.5-1.9-4.5-5.5v-21.7h-13.2v20.5c0,11.6,5.5,16.9,17.5,17.1
			c12,0,17.7-5.3,17.7-16.9V111h-13.2L237.5,132.6z"/>
		<polygon points="281.3,111.1 275.8,130.1 270.5,111.1 255.2,111 255,147.5 267.1,147.6 267.2,134.9 267.1,133.1 271.2,147.6 
			280.4,147.6 284.6,133.1 284.6,136 284.6,147.6 296.6,147.6 296.7,111.1 		"/>
	</g>
	<g>
		<text id="XMLID_1_" transform="matrix(1 3.271253e-03 -3.271253e-03 1 115.4115 186.2084)" class="st0 st1 st2">by</text>
		<g>
			<g>
				<text transform="matrix(1 3.271253e-03 -3.271253e-03 1 129.0305 185.9854)" class="st0 st3 st4">Xpro</text>
				<g>
					<text transform="matrix(1 3.271253e-03 -3.271253e-03 1 174.5949 182.7877)" class="st0 st5 st6">®</text>
				</g>
			</g>
		</g>
	</g>
</g>
</svg>
