<?xml version="1.0" encoding="utf-8"?>
<!-- Generator: Adobe Illustrator 24.0.0, SVG Export Plug-In . SVG Version: 6.00 Build 0)  -->
<svg version="1.1" id="Capa_1" xmlns="http://www.w3.org/2000/svg" xmlns:xlink="http://www.w3.org/1999/xlink" x="0px" y="0px"
	 viewBox="0 0 358.5 200" style="enable-background:new 0 0 358.5 200;" xml:space="preserve">
<style type="text/css">
	.st0{fill:#FCC000;}
	.st1{font-family:'Gotham-Book';}
	.st2{font-size:8.2864px;}
	.st3{font-family:'Gotham-Black';}
	.st4{font-size:14.4944px;}
	.st5{font-family:'Gotham-Medium';}
	.st6{font-size:12.3507px;}
</style>
<g>
	<g>
		<path id="XMLID_2_" class="st0" d="M277.3,70.9h6.8c3.1,0,5.4,0.6,6.8,1.8c1.4,1.2,2.2,3.1,2.2,5.7c0,2.7-0.8,4.8-2.4,6.1
			c-1.6,1.3-4.1,1.9-7.4,1.9h-5.9V70.9H277.3z M125.4,70.9h6.8c3.1,0,5.4,0.6,6.8,1.8c1.4,1.2,2.2,3.1,2.2,5.7
			c0,2.7-0.8,4.8-2.4,6.1c-1.6,1.3-4.1,1.9-7.4,1.9h-6V70.9z M35.9,75l2.9,18.8H33L35.9,75z M0,74.1c0.1,0,0.4,0,0.7,0
			c0.2,0,0.5,0,0.6,0c2,0,3.6,0.4,4.4,1.2c0.8,0.7,1.3,2,1.3,3.9c0,2-0.5,3.5-1.3,4.3c-0.8,0.8-2.4,1.3-4.4,1.3c-0.1,0-0.4,0-0.6,0
			s-0.5,0-0.7,0C0,84.9,0,74.1,0,74.1z M0,108.9V92.6h2c1.8,0,3,0.5,3.7,1.4c0.7,1,1.1,2.7,1.1,5.4c0,0.2,0,1,0,1.9c0,1,0,1.8,0,2.5
			c0,1.1,0.1,2.2,0.2,3.1c0.1,0.7,0.2,1.3,0.4,1.9H0V108.9z M20.7,108.9h-2.3c-1.1-1.6-1.6-4.3-1.7-8.2c0-1.1,0-1.8,0-2.4v-0.1
			c-0.1-5.1-1.8-8.5-4.9-9.8c1.8-1.1,3.2-2.5,4.1-4.2c0.8-1.7,1.3-3.7,1.3-6.2c0-2-0.4-3.8-1-5.3c-0.6-1.4-1.6-2.7-2.7-3.7
			c-1-0.8-2.3-1.3-3.8-1.7h20.1L20.7,108.9z M30.8,108.9l1.1-7.4h7.9l1.1,7.4H30.8z M54.9,99.6c0.4,2.4,1,4.3,1.8,5.6
			c1.1,1.6,2.3,2.7,3.8,3.7h-9.6l-9-41.6h19.1c-1.8,1-3.3,2.3-4.4,4.1c-0.8,1.3-1.4,3.2-1.8,5.6c-0.4,2.4-0.6,6.2-0.6,11.4
			C54.3,93.4,54.5,97.2,54.9,99.6z M89.3,108.9H77c0.8-0.5,1.7-1.2,2.4-1.9c2.3-2.5,3.5-6.5,3.5-11.7c0-0.6,0-1.1,0-1.3
			c0-0.2,0-0.6,0-0.8h-10v1.9c0,3-0.4,5-1,6.1c-0.6,1.1-1.7,1.7-3.2,1.7c-1.7,0-2.7-0.7-3.3-2.3c-0.6-1.6-0.8-5.6-0.8-12.2v-0.8
			c0-6.2,0.2-10,0.8-11.5c0.6-1.4,1.7-2.2,3.3-2.2c1.4,0,2.5,0.6,3.2,1.8c0.6,1.2,1,3.2,1,6.2h9.8v-0.5c0-5.3-1.2-9.2-3.6-11.7
			c-0.8-1-1.9-1.7-3-2.3h13.1v41.5H89.3z M99.5,108.9V98.3l2.2-4.1l5,14.7L99.5,108.9L99.5,108.9z M99.5,84.5V67.2h7.3L99.5,84.5z
			 M120.6,108.9h-3.5l-9.2-23.3l9.1-18.3h3.7v41.6H120.6z M125.4,108.9V90.6h6.1c3.3,0,5.6,0.6,6.9,1.7c1.3,1.1,2,3.1,2.3,6.1
			c0.1,1.1,0.2,2.5,0.2,4.4c0.1,2.9,0.4,4.9,0.7,6.1H125.4z M154.1,108.9h-6.8c-0.8-1.4-1.3-3.9-1.6-7.7c-0.1-1.8-0.2-3.3-0.4-4.3
			c-0.2-2.9-1-4.9-2.2-6.2c-1.2-1.3-3-2.2-5.4-2.3c2.7-0.7,4.8-1.9,6.1-3.6s1.9-4.1,1.9-6.9c0-3.7-1.1-6.5-3.2-8.4
			c-1.2-1-2.7-1.7-4.5-2.2h16V108.9z M193.9,106.5c-2.6,0-4.7-0.7-6-2.3c-1.3-1.4-2-3.7-2-6.7V96h-4.5c0,0.1,0,0.4,0,0.7
			c0,0.4,0,0.6,0,0.7c0,4.3,1.1,7.7,3.1,9.9c0.5,0.6,1.1,1.1,1.8,1.4h-10.4v-3.6h-17V89.3h15.5v-4.4h-15.5V71h16.6v-3.9h11.6
			c-0.7,0.5-1.4,1-2,1.6c-2,2.2-3.1,5-3.1,8.8c0,1.9,0.2,3.6,0.8,5.1c0.6,1.4,1.4,2.7,2.6,3.8c0.7,0.6,2.9,1.6,6.3,2.9
			c1.2,0.5,2.3,0.8,2.9,1.1c2.9,1.1,4.8,2.2,5.6,3.3c0.8,1.1,1.2,2.6,1.2,4.7c0,2.5-0.7,4.5-2,6
			C198.2,105.8,196.3,106.5,193.9,106.5z M213,108.9h-12.1c0.7-0.5,1.3-1,1.9-1.6c2.3-2.3,3.3-5.5,3.3-9.6c0-2-0.2-3.7-0.7-5.1
			c-0.5-1.4-1.3-2.6-2.4-3.6c-0.8-0.8-3.6-2-8-3.7c-0.7-0.2-1.2-0.5-1.6-0.6c-3-1.1-4.9-2.2-5.7-3.3c-0.8-1.1-1.3-2.7-1.3-4.8
			c0-2.2,0.6-3.8,1.9-5.1s3.1-1.9,5.3-1.9c2.2,0,3.8,0.7,5,2c1.2,1.3,1.8,3.2,1.8,5.6v0.5h4.4c0-0.1,0-0.2,0-0.6c0-0.2,0-0.5,0-0.6
			c0-3.5-1-6.2-3-8.1c-0.5-0.5-1.1-1-1.7-1.3h12.7v41.8H213z M234.5,108.9v-3.6h-16.9v-16h15.5v-4.4h-15.5V71h16.6v-3.9h15.4
			l-11.4,41.6h-3.8V108.9z M252.9,70.4l5.7,22.6h-11.5L252.9,70.4z M243.3,108.9l2.9-11.5h13.6l3,11.5H243.3z M272.7,108.9h-5
			l-11.5-41.6h16.5V108.9z M277.3,108.9V90.6h6.1c3.3,0,5.6,0.6,6.9,1.7s2,3.1,2.3,6.1c0.1,1.1,0.2,2.5,0.2,4.4
			c0.1,2.9,0.4,4.9,0.7,6.1H277.3z M299.3,108.9c-0.8-1.4-1.3-3.9-1.6-7.7c-0.1-1.8-0.2-3.3-0.4-4.3c-0.2-2.9-1-4.9-2.2-6.2
			c-1.2-1.3-3-2.2-5.4-2.3c2.7-0.7,4.8-1.9,6.1-3.6c1.3-1.7,1.9-4.1,1.9-6.9c0-3.7-1.1-6.5-3.2-8.4c-1.2-1-2.7-1.7-4.5-2.2h21
			c-1.6,0.8-2.7,2.2-3.7,3.7c-2.2,3.6-3.2,9.3-3.2,17.3c0,7.7,1.1,13.3,3.2,17c0.8,1.6,1.9,2.6,3.2,3.6h-11.4V108.9z M337.5,108.9
			h-13.1c1-0.6,1.8-1.4,2.5-2.4c2.3-2.9,3.3-7.1,3.3-12.6h-4.8v0.7c0,3.7-0.7,6.6-2,8.6c-1.3,2-3.2,3-5.6,3c-3,0-5.3-1.3-6.6-4.1
			c-1.3-2.7-2-7.3-2-13.7c0-6.6,0.6-11.4,1.9-14.2c1.3-2.9,3.3-4.3,6.3-4.3c2.4,0,4.3,0.8,5.6,2.5c1.4,1.7,2,3.9,2,6.9h4.7v-0.5
			c0-4.2-1.1-7.4-3.2-9.8c-0.7-0.7-1.4-1.3-2.3-1.8h13v41.6H337.5z M358.5,108.9h-16V88.8h16V108.9z M358.5,84.4h-16V67.2h16V84.4z"
			/>
	</g>
	<g>
		<text id="XMLID_1_" transform="matrix(1 0 0 1 154.3039 128.5744)" class="st0 st1 st2">by</text>
		<g>
			<g>
				<text transform="matrix(1 0 0 1 164.7014 128.3703)" class="st0 st3 st4">Xpro</text>
				<g>
					<text transform="matrix(1 0 0 1 199.4797 125.8146)" class="st0 st5 st6">®</text>
				</g>
			</g>
		</g>
	</g>
</g>
</svg>
