<?xml version="1.0" encoding="utf-8"?>
<!-- Generator: Adobe Illustrator 24.0.0, SVG Export Plug-In . SVG Version: 6.00 Build 0)  -->
<svg version="1.1" id="Capa_1" xmlns="http://www.w3.org/2000/svg" xmlns:xlink="http://www.w3.org/1999/xlink" x="0px" y="0px"
	 viewBox="0 0 411.4 218.5" style="enable-background:new 0 0 411.4 218.5;" xml:space="preserve">
<style type="text/css">
	.st0{fill:#FFFFFF;}
	.st1{fill:#E2131C;}
</style>
<g>
	<g>
		<g>
			<g>
				<path class="st0" d="M257.5,77.1l-19.8,29.4l20.7,31h-19.2l-11.6-18.3L216,137.5h-18.8l20.7-30.7l-19.8-29.7h19.1l10.6,17
					l10.9-17C238.7,77.1,257.5,77.1,257.5,77.1z"/>
				<path class="st0" d="M263.8,90.8h16.4V97c0.8-1,1.7-1.9,2.6-2.8s1.9-1.6,3.1-2.3c1.1-0.7,2.4-1.2,3.8-1.6s3-0.6,4.7-0.6
					c2.8,0,5.4,0.6,7.9,1.7s4.7,2.7,6.6,4.8c1.9,2.1,3.4,4.6,4.5,7.6s1.7,6.4,1.7,10.1v0.2c0,3.8-0.6,7.2-1.7,10.2s-2.6,5.6-4.5,7.7
					c-1.9,2.1-4.1,3.7-6.6,4.8s-5.1,1.7-7.9,1.7c-1.8,0-3.4-0.2-4.8-0.6c-1.4-0.4-2.7-0.9-3.8-1.5c-1.2-0.6-2.2-1.3-3.1-2.2
					c-0.9-0.8-1.8-1.7-2.5-2.5v19.5h-16.4L263.8,90.8L263.8,90.8z M289.4,124.8c1.3,0,2.6-0.3,3.7-0.8c1.2-0.5,2.2-1.2,3-2.2
					c0.9-0.9,1.6-2,2.1-3.4c0.5-1.3,0.8-2.8,0.8-4.3V114c0-1.6-0.3-3-0.8-4.3s-1.2-2.4-2.1-3.4c-0.9-0.9-1.9-1.7-3-2.2
					c-1.2-0.5-2.4-0.8-3.7-0.8c-1.3,0-2.6,0.3-3.8,0.8c-1.2,0.5-2.2,1.3-3.1,2.2c-0.9,0.9-1.5,2.1-2,3.4s-0.7,2.7-0.7,4.3v0.2
					c0,1.6,0.2,3,0.7,4.3s1.2,2.4,2,3.4c0.9,0.9,1.9,1.7,3.1,2.2C286.8,124.5,288.1,124.8,289.4,124.8z"/>
				<path class="st0" d="M322.1,90.8h16.4v9.4c1.3-3.2,3.1-5.7,5.4-7.6s5.4-2.8,9.3-2.6v17.3h-1.4c-4.3,0-7.6,1.3-9.9,3.8
					s-3.5,6.5-3.5,11.9v14.6H322V90.8H322.1z"/>
				<path class="st0" d="M382,138.6c-3.7,0-7.2-0.6-10.3-1.9c-3.1-1.3-5.8-3-8.1-5.2c-2.3-2.2-4.1-4.8-5.3-7.7
					c-1.3-2.9-1.9-6.1-1.9-9.4v-0.2c0-3.3,0.6-6.5,1.9-9.4c1.3-3,3.1-5.6,5.3-7.8c2.3-2.2,5-4,8.2-5.3s6.6-1.9,10.4-1.9
					c3.7,0,7.2,0.6,10.3,1.9c3.1,1.3,5.9,3,8.2,5.2c2.3,2.2,4.1,4.7,5.3,7.7c1.3,2.9,1.9,6.1,1.9,9.4v0.2c0,3.3-0.6,6.5-1.9,9.4
					c-1.3,3-3.1,5.6-5.4,7.8s-5,4-8.2,5.3C389.2,138,385.7,138.6,382,138.6z M382.1,124.7c1.5,0,2.8-0.3,4.1-0.8
					c1.2-0.5,2.2-1.3,3.1-2.2c0.9-0.9,1.5-2,2-3.3s0.7-2.6,0.7-4v-0.2c0-1.4-0.2-2.8-0.7-4.1c-0.5-1.3-1.2-2.4-2.1-3.4
					c-0.9-0.9-2-1.7-3.2-2.3c-1.2-0.6-2.6-0.9-4-0.9c-1.5,0-2.8,0.3-4.1,0.8c-1.2,0.5-2.2,1.3-3.1,2.2c-0.8,0.9-1.5,2-1.9,3.3
					c-0.5,1.3-0.7,2.6-0.7,4v0.2c0,1.4,0.2,2.8,0.7,4c0.5,1.3,1.2,2.4,2.1,3.3s1.9,1.7,3.1,2.3S380.7,124.7,382.1,124.7z"/>
			</g>
			<g>
				<g>
					<polygon class="st1" points="145.4,109.1 173.2,148.8 173.2,69.4 					"/>
					<path class="st1" d="M90.4,109.1L44.5,43.5c-0.6-0.9-0.8-1.8-0.5-2.4c0.3-0.5,0.8-0.8,1.6-0.8h43h3.1c0.5,0,1.1,0.1,1.7,0.2
						h0.1h0.1c0,0,0,0,0.1,0l0,0c0.4,0.1,0.9,0.3,1.4,0.5c0.3,0.1,0.6,0.2,0.9,0.4c0.4,0.2,0.7,0.3,0.9,0.5L97,42l0.1,0.1
						c0.1,0.1,0.3,0.2,0.4,0.2c0.4,0.2,0.7,0.5,1.1,0.8h0.1l0.1,0.1c0.2,0.2,0.5,0.4,0.8,0.7c0.2,0.2,0.5,0.4,0.7,0.7
						c0.2,0.2,0.4,0.5,0.6,0.7c0.2,0.3,0.4,0.5,0.5,0.7l16.7,23.8L134.6,46c0.1-0.2,0.3-0.4,0.5-0.7c0.2-0.2,0.4-0.4,0.6-0.7
						c0.2-0.2,0.5-0.5,0.7-0.7c0.3-0.3,0.5-0.5,0.8-0.7l0.1-0.1l0.1-0.1c0.4-0.3,0.7-0.5,1.1-0.8c0.1-0.1,0.3-0.2,0.4-0.2l0.1-0.1
						c0,0,0.1,0,0.1-0.1c0.3-0.2,0.6-0.3,0.9-0.5c0.3-0.1,0.6-0.3,0.9-0.4c0.5-0.2,1-0.4,1.4-0.5l0,0c0,0,0,0,0.1,0h0.1h0.1
						c0.6-0.1,1.2-0.2,1.7-0.2h29V19.6c0-9.6-7.9-17.5-17.5-17.5H19C9.4,2.1,1.5,10,1.5,19.6v136.7c0,9.6,7.9,17.5,17.5,17.5h26
						L90.4,109.1z"/>
					<path class="st1" d="M134.6,172.3l-16.7-23.8l-16.7,23.8c-0.4,0.5-0.8,1.1-1.3,1.6H136C135.5,173.3,135,172.8,134.6,172.3"/>
				</g>
				<path class="st0" d="M177.5,16.6L177.5,16.6c0-5.4,4.4-10,9.8-10c5.5,0,9.8,4.5,9.8,9.8v0.1c0,5.4-4.4,9.9-9.8,9.9
					C181.8,26.4,177.5,22,177.5,16.6 M196,16.5L196,16.5c0-4.9-3.7-8.8-8.7-8.8c-4.9,0-8.7,4-8.7,8.8v0.1c0,4.8,3.7,8.8,8.7,8.8
					C192.2,25.4,196,21.3,196,16.5 M183.6,11.4h4.4c2,0,3.7,1.1,3.7,3.1c0,1.6-1.1,2.6-2.4,3l2.8,3.8h-2l-2.5-3.6h-2.4v3.6h-1.6
					V11.4z M187.9,16.4c1.4,0,2.2-0.7,2.2-1.8c0-1.2-0.8-1.8-2.2-1.8h-2.7v3.6H187.9z"/>
			</g>
		</g>
	</g>
	<g>
		<path class="st0" d="M128.5,192.1h3.7l6,9.3l6-9.3h3.7v19.6h-3.4v-14.1l-6.2,9.3h-0.1l-6.1-9.2v14h-3.4V192.1z"/>
		<path class="st0" d="M152.3,206.3v-9.4h3.4v8.4c0,2.3,1.1,3.6,3.2,3.6c2,0,3.3-1.3,3.3-3.6v-8.4h3.4v14.8h-3.4v-2.3
			c-1,1.4-2.3,2.6-4.6,2.6C154.2,212,152.3,209.8,152.3,206.3z"/>
		<path class="st0" d="M168.7,209.8l1.5-2.3c1.6,1.2,3.3,1.8,4.9,1.8c1.5,0,2.3-0.6,2.3-1.6v-0.1c0-1.2-1.6-1.5-3.3-2.1
			c-2.2-0.6-4.6-1.5-4.6-4.3v-0.1c0-2.8,2.3-4.5,5.3-4.5c1.9,0,3.9,0.6,5.4,1.7l-1.3,2.4c-1.4-0.9-2.9-1.4-4.2-1.4
			c-1.3,0-2.1,0.6-2.1,1.5v0.1c0,1.1,1.6,1.5,3.3,2.1c2.2,0.7,4.6,1.7,4.6,4.3v0.1c0,3.1-2.4,4.7-5.5,4.7
			C172.8,212,170.5,211.2,168.7,209.8z"/>
		<path class="st0" d="M184,191.4h3.6v3.2H184V191.4z M184.1,196.9h3.4v14.8h-3.4V196.9z"/>
		<path class="st0" d="M191.1,204.4L191.1,204.4c0-4.3,3.3-7.8,7.7-7.8c2.8,0,4.5,1,5.9,2.6l-2.1,2.3c-1-1.1-2.1-1.9-3.8-1.9
			c-2.5,0-4.3,2.1-4.3,4.7v0.1c0,2.6,1.8,4.7,4.4,4.7c1.6,0,2.8-0.7,3.8-1.8l2,2c-1.5,1.6-3.2,2.8-6.1,2.8
			C194.4,212,191.1,208.6,191.1,204.4z"/>
		<path class="st0" d="M215.9,201.9L215.9,201.9c0-5.6,4.2-10.2,10.1-10.2c3.4,0,5.5,1,7.5,2.7l-2.2,2.6c-1.5-1.3-3-2.1-5.5-2.1
			c-3.6,0-6.4,3.2-6.4,6.9v0.1c0,4,2.7,7,6.7,7c1.9,0,3.5-0.6,4.7-1.5v-3.7h-5v-3h8.4v8.2c-1.9,1.7-4.7,3.1-8.2,3.1
			C219.9,212,215.9,207.7,215.9,201.9z"/>
		<path class="st0" d="M238.4,196.9h3.4v3.3c0.9-2.2,2.6-3.7,5.2-3.6v3.6h-0.2c-3,0-5,1.9-5,5.9v5.6h-3.4V196.9z"/>
		<path class="st0" d="M248.6,204.4L248.6,204.4c0-4.3,3.4-7.8,7.9-7.8s7.9,3.4,7.9,7.7v0.1c0,4.2-3.4,7.7-7.9,7.7
			C252,212,248.6,208.6,248.6,204.4z M261,204.4L261,204.4c0-2.7-1.9-4.8-4.5-4.8c-2.7,0-4.5,2.1-4.5,4.7v0.1c0,2.6,1.9,4.7,4.5,4.7
			C259.3,209.1,261,206.9,261,204.4z"/>
		<path class="st0" d="M267.7,206.3v-9.4h3.4v8.4c0,2.3,1.1,3.6,3.2,3.6c2,0,3.3-1.3,3.3-3.6v-8.4h3.4v14.8h-3.4v-2.3
			c-1,1.4-2.3,2.6-4.6,2.6C269.6,212,267.7,209.8,267.7,206.3z"/>
		<path class="st0" d="M285.2,196.9h3.4v2.5c1.1-1.5,2.6-2.8,5-2.8c3.5,0,6.9,2.7,6.9,7.7v0.1c0,4.9-3.4,7.7-6.9,7.7
			c-2.5,0-4-1.2-5-2.6v6.8h-3.4V196.9z M297.1,204.3L297.1,204.3c0-2.9-1.9-4.8-4.2-4.8s-4.3,1.9-4.3,4.7v0.1c0,2.8,2,4.7,4.3,4.7
			C295.2,209.1,297.1,207.2,297.1,204.3z"/>
		<path class="st0" d="M303.6,207.8h3.7v3.9h-3.7V207.8z"/>
	</g>
</g>
</svg>
