<?xml version="1.0" encoding="utf-8"?>
<!-- Generator: Adobe Illustrator 24.0.0, SVG Export Plug-In . SVG Version: 6.00 Build 0)  -->
<svg version="1.1" id="Capa_1" xmlns="http://www.w3.org/2000/svg" xmlns:xlink="http://www.w3.org/1999/xlink" x="0px" y="0px"
	 viewBox="0 0 264 200" style="enable-background:new 0 0 264 200;" xml:space="preserve">
<style type="text/css">
	.st0{fill:#0078A2;}
	.st1{fill:#0080AF;}
	.st2{fill:#FFFFFF;}
	.st3{fill:#5D595B;}
</style>
<g>
	<g id="XMLID_19_">
		<g id="XMLID_24_">
			<path class="st0" d="M64.9,164.9C29,164.9,0,135.8,0,100s29.2-64.9,64.9-64.9s64.9,29,64.9,64.9S100.7,164.9,64.9,164.9z
				 M64.9,37.4C30.4,37.4,2.3,65.5,2.3,100s28.1,62.6,62.6,62.6s62.6-28.1,62.6-62.6S99.4,37.4,64.9,37.4z"/>
		</g>
		<g id="XMLID_23_">
			<path class="st1" d="M35.8,149.6c-1.1-4.9-1.6-9.9-1.3-15c0.4-7.5,2.1-14.7,5.4-21.4c0.8-1.6,1.6-3.1,2.4-4.7
				c-9.5,9.4-14.6,20.7-16.3,33.7c-7.9-7.2-13.6-16.6-16.6-27.2c7.2-9.8,16.3-17,28-21c0.3-0.1,0.5-0.3,0.8-0.4
				c-11.4,0.4-21.5,4.1-30.5,10.8c-0.1-1.6-0.3-3.1-0.3-4.7c0-8.3,1.7-16.3,4.9-23.4c6-1.2,12-1.5,18.2-0.7c0.7,0.1,1.2,0.1,1.9,0.3
				c0.5,0.1,1.2,0.1,1.7,0.3c-6-3.1-12.3-4.8-19-5.5c7.2-12.4,19-21.8,33-26.1c4.8,2.1,8.8,5.5,12,9.6c0.3,0.4,0.7,0.8,1.1,1.5
				c-0.5-0.1-0.8-0.1-0.9-0.1c-3.9-0.9-7.9-1.3-12-1.2c-4.4,0.1-8.6,0.8-12.7,2.3c-0.7,0.3-1.2,0.4-1.3,1.3c-0.3,3.2,0,6.4,1.2,9.5
				c0.7-2.4,1.7-4.4,3.3-6.3c0.5-0.7,1.1-0.8,1.9-0.5c6.2,1.7,11.2,5.1,15.5,9.6c0.5,0.5,0.5,1.1,0.3,1.7c-1.7,3.3-3.5,6.8-5.1,10.2
				c-0.3,0.4-0.4,0.8-0.5,1.3c11.8,2.7,28.1,7.5,28.1,7.9c0,2.1,0.5,4.3,1.3,6.4c5.9-1.7,11-0.9,15.1,2.5c-0.5,2.5-1.9,4.7-3.7,6.3
				c0,0.1,0.1,0.1,0.1,0.3c0.5-0.1,12.3-5.1,14.8-16.9c0.1-0.7,0-0.9-0.5-1.2c-2.8-1.6-4.8-4.1-6.4-6.8c-0.4-0.7-0.7-1.2-1.1-2.1
				c3.9,0.5,7.6,1.3,11.4,1.2c-4.4-2.8-9-5.2-13.6-7.5c-4.7-2.1-9.4-4.3-14-6.4c0.5-1.7,1.1-3.3,1.6-4.9c0.3-0.8,0-1.3-0.8-1.6
				c-2.1-0.7-4.1-1.5-6.3-2.1c-0.5-0.1-10.3-11.4-14.8-16.2c1.1,0,2-0.1,3.1-0.1c31.7,0,57.5,25.8,57.5,57.5S96.7,157.4,65,157.4
				C54.3,157.5,44.4,154.7,35.8,149.6z"/>
		</g>
		<g id="XMLID_22_">
			<path class="st2" d="M83.1,127.3c0.5-0.9,7.2-5.6,4.5-15.4h-0.1c-0.3,1.5-0.8,2.8-1.9,4c-4.9-1.9-8.2-5.5-9.2-11c0,0,0,0,0-0.1
				h-9.6v13.4C70.4,117.3,82.4,126.2,83.1,127.3z"/>
		</g>
		<g id="XMLID_21_">
			<path class="st2" d="M107.8,87c0.5-0.9,0.9-1.9,1.1-2.9c0-0.5,0-0.7-0.5-0.7c-1.6-0.1-3.2-0.1-4.8-0.3c-0.1,0-0.1,0-0.3,0
				c0,0.1,0,0.1,0,0.3c0.9,1.6,2,2.9,3.6,3.9C107.4,87.6,107.5,87.6,107.8,87z"/>
		</g>
		<g id="XMLID_20_">
			<path class="st1" d="M65.4,61.2c0-0.1,0.1-0.3,0.1-0.3c3.9,0.4,7.6,1.1,11.6,1.9c-0.3,0.7-1.3,5.2-1.3,5.6
				C72.2,65.9,68.8,63.6,65.4,61.2z"/>
		</g>
	</g>
	<g id="XMLID_1_">
		<g id="XMLID_18_">
			<path class="st1" d="M138,95.5V58.1h12.2v28.6h16.7v8.7H138z"/>
			<path class="st1" d="M170.4,95.5V58.1h12.2v37.3H170.4z"/>
			<path class="st1" d="M225.5,76.6c0,12.7-8.6,19.8-19.5,19.8c-11.6,0-19.5-7.2-19.5-19.9c0-11.6,7.9-19.3,19.5-19.3
				C219.2,57.2,225.5,66.7,225.5,76.6z M198.6,76.6c0,4.8,1.5,10.7,7.4,10.7c5.2,0,7.4-4.5,7.4-10.7c0-5.1-2-10.4-7.5-10.3
				C200.4,66.3,198.6,71.9,198.6,76.6z"/>
			<path class="st1" d="M253.6,78.5l-0.4-8.4V58.1h11.6v37.3h-11.5l-13.2-20.3l0.4,8.4v11.8h-11.6V58.1h11.5L253.6,78.5z"/>
		</g>
		<g id="XMLID_17_">
			<path class="st3" d="M136.8,116.2l1.3-1.6c2,1.7,3.9,2.7,6.4,2.7c2.5,0,4.1-1.3,4.1-3.2l0,0c0-1.7-0.9-2.7-4.9-3.6
				c-4.3-0.9-6.3-2.3-6.3-5.5l0,0c0-2.9,2.5-5.1,6.2-5.1c2.7,0,4.7,0.8,6.6,2.3l-1.2,1.6c-1.7-1.5-3.5-2-5.5-2c-2.4,0-4,1.3-4,3.1
				l0,0c0,1.7,0.9,2.8,5.1,3.6c4.1,0.9,6.2,2.4,6.2,5.4l0,0c0,3.2-2.7,5.4-6.4,5.4C141.5,119.1,139.1,118.2,136.8,116.2z"/>
			<path class="st3" d="M154.5,111.1v-11h2.1V111c0,4,2.1,6.3,5.8,6.3c3.5,0,5.6-2.1,5.6-6.2v-11h2.1v10.7c0,5.5-3.1,8.3-7.9,8.3
				C157.7,119.3,154.5,116.3,154.5,111.1z"/>
			<path class="st3" d="M174.7,100.1h7.1c4.3,0,7.1,2.3,7.1,6l0,0c0,4-3.3,6.2-7.4,6.2H177v6.7h-2.1v-18.9H174.7z M181.5,110.3
				c3.1,0,5.2-1.6,5.2-4.1l0,0c0-2.7-2-4.1-5.1-4.1h-4.8v8.3H181.5z"/>
			<path class="st3" d="M192.2,100.1h7.1c4.3,0,7.1,2.3,7.1,6l0,0c0,4-3.3,6.2-7.4,6.2h-4.5v6.7h-2.1v-18.9H192.2z M198.9,110.3
				c3.1,0,5.2-1.6,5.2-4.1l0,0c0-2.7-2-4.1-5.1-4.1h-4.8v8.3H198.9z"/>
			<path class="st3" d="M208.8,109.6L208.8,109.6c0-5.2,3.9-9.8,9.6-9.8c5.8,0,9.5,4.5,9.5,9.6l0,0c0,5.2-3.9,9.8-9.6,9.8
				S208.8,114.7,208.8,109.6z M225.8,109.6L225.8,109.6c0-4.3-3.1-7.8-7.4-7.8c-4.3,0-7.4,3.5-7.4,7.8l0,0c0,4.3,3.1,7.8,7.4,7.8
				C222.7,117.4,225.8,113.8,225.8,109.6z"/>
			<path class="st3" d="M231.9,100.1h8c2.3,0,4.1,0.7,5.4,1.9c0.9,0.9,1.5,2.3,1.5,3.7l0,0c0,3.1-2.1,4.9-5.1,5.5l5.8,7.6h-2.5
				l-5.5-7.4h-5.4v7.4h-2.1V100.1z M239.8,109.8c2.8,0,4.8-1.5,4.8-3.9l0,0c0-2.3-1.7-3.7-4.8-3.7h-5.8v7.6
				C234.1,109.8,239.8,109.8,239.8,109.8z"/>
			<path class="st3" d="M255.6,102.1h-6.3v-2H264v2h-6.3V119h-2.1V102.1z"/>
		</g>
		<g id="XMLID_2_">
			<g id="XMLID_5_">
				<g id="XMLID_16_">
					<path class="st1" d="M198.5,134.9l-2.8,4.5l1.9,2.7c0.3,0.4,0.8,0.7,1.1,0.7h5.1h0.1c0,0,0-0.1,0-0.3L198.5,134.9z"/>
				</g>
				<g id="XMLID_15_">
					<path class="st1" d="M203.7,126.6l-5.2,7.6l0.1,0.1l0,0l5.4-7.9c0-0.1,0.1-0.1,0-0.3h-0.1h-0.1l0,0
						C203.9,126.4,203.9,126.5,203.7,126.6"/>
				</g>
				<g id="XMLID_14_">
					<path class="st1" d="M198.5,134.8l-0.1-0.3l-5.2,7.6c0,0,0,0-0.1,0.1l0,0c0,0,0,0,0,0.1l0,0c0,0,0,0-0.1,0.1l0,0c0,0,0,0-0.1,0
						l0,0c0,0,0,0-0.1,0l0,0c0,0,0,0-0.1,0l0,0c0,0,0,0-0.1,0l0,0c0,0,0,0-0.1,0l0,0l0,0c0.4,0,0.8-0.3,1.1-0.7l3.5-5.1L198.5,134.8
						z"/>
				</g>
				<g id="XMLID_13_">
					<path class="st1" d="M198.5,134.2l5.2-7.6c0-0.1,0.1-0.1,0-0.3h-0.1h-5.1h-0.1l0,0l0,0l0,0h-0.1c0,0,0,0-0.1,0H198l0,0l0,0l0,0
						c0,0-0.1,0-0.1,0.1l0,0l0,0c0,0,0,0-0.1,0.1c0,0,0,0-0.1,0.1c0,0,0,0,0,0.1c0,0,0,0,0,0.1l-1.7,2.5L198.5,134.2z"/>
				</g>
				<g id="XMLID_12_">
					<path class="st1" d="M198.6,134.6L198.6,134.6l-0.1-0.3l-2.1-2.9l-3.1-4.4c0,0,0,0,0-0.1c0,0,0,0-0.1-0.1c0,0,0,0-0.1-0.1
						c0,0,0,0-0.1-0.1l0,0l0,0c0,0-0.1,0-0.1-0.1l0,0l0,0l0,0h-0.1h-0.1h-0.1l0,0l0,0l0,0c-0.1,0-0.1,0-0.1,0l0,0l0,0h0.1h0.1l0,0
						l0,0l0,0c0,0,0.1,0,0.1,0.1l0,0l0,0c0,0,0,0,0.1,0.1c0,0,0,0,0.1,0.1c0,0,0,0,0.1,0.1c0,0,0,0,0,0.1l5.4,7.5l0,0l0,0l0.1,0.3
						l5.4,7.5c0.1,0.1,0.1,0.3,0,0.3l0,0h0.1h0.1c0,0,0-0.1,0-0.3L198.6,134.6z"/>
				</g>
				<g id="XMLID_11_">
					<path class="st1" d="M192.2,134.5l6-0.1l-5.4-7.4c0,0,0,0,0-0.1c0,0,0,0-0.1-0.1c0,0,0,0-0.1-0.1c0,0,0,0-0.1-0.1l0,0l0,0
						c0,0-0.1,0-0.1-0.1l0,0l0,0l0,0h-0.1h-0.1h-0.1l0,0l0,0l0,0c-0.1,0-0.1,0-0.1,0h-5.1h-0.1c0,0,0,0.1,0,0.3L192.2,134.5z"/>
				</g>
				<g id="XMLID_10_">
					<path class="st1" d="M193,142.1l5.2-7.5l-6.2,0.3l-5.4,7.8c0,0.1-0.1,0.1,0,0.3h0.1h5.1C192.3,142.8,192.9,142.5,193,142.1"/>
				</g>
				<g id="XMLID_9_">
					<polygon class="st1" points="198.4,134.5 198.4,134.5 198.4,134.5 198.4,134.5 198.2,134.6 198.5,134.8 198.5,134.8 
						198.5,134.8 198.5,134.8 198.5,134.8 					"/>
				</g>
				<g id="XMLID_8_">
					<path class="st1" d="M207.7,130.4c-1.2,0-2.9,0-2.9,0l0.1,8.2h2V136h0.9c1.7,0,3.3-0.7,3.3-2.9
						C211.1,131.2,209.7,130.4,207.7,130.4 M207.6,134.4c-0.3,0-0.5,0-0.8,0v-2.3h0.8c0.5,0,1.3,0.1,1.3,1.1
						C209.1,134.2,208.3,134.4,207.6,134.4"/>
				</g>
				<g id="XMLID_7_">
					<path class="st1" d="M219.2,138.4l-2.1-2.9c0.7-0.4,1.2-1.2,1.2-2.5c0-1.9-1.3-2.7-3.3-2.7c-1.2,0-2.9,0-2.9,0l0.1,8.2h2v-2.5
						h0.9h0.1l1.6,2.3c0.1,0.1,0.3,0.3,0.4,0.3H219.2C219.2,138.5,219.2,138.4,219.2,138.4 M214.8,134.2c-0.3,0-0.5,0-0.8,0v-2V132
						h0.8c0.5,0,1.3,0.1,1.3,1.1c0,0.4-0.1,0.7-0.3,0.8C215.8,134.2,215.2,134.2,214.8,134.2"/>
				</g>
				<g id="XMLID_6_">
					<path class="st1" d="M223.4,130.1c-2.4,0-4.3,2-4.3,4.3c0,2.4,2,4.3,4.3,4.3c2.4,0,4.3-2,4.3-4.3
						C227.7,132,225.8,130,223.4,130.1 M223.5,136.7c-1.3,0-2.3-1.1-2.4-2.3c0-1.3,1.1-2.3,2.3-2.4c1.3,0,2.4,1.1,2.4,2.3
						C225.8,135.6,224.7,136.7,223.5,136.7"/>
				</g>
			</g>
			<g id="XMLID_4_">
				<path class="st1" d="M148.6,132.6h1.7c1.1,0,1.7,0.5,1.7,1.5l0,0c0,1.1-0.8,1.5-1.9,1.5H149v1.6h-0.5v-4.5H148.6z M150.3,135.2
					c0.8,0,1.3-0.4,1.3-1.1l0,0c0-0.7-0.5-1.1-1.2-1.1h-1.2v2h1.1V135.2z"/>
				<path class="st1" d="M152.8,135.6L152.8,135.6c0-0.9,0.8-1.9,1.9-1.9s1.7,0.8,1.7,1.7l0,0c0,0.9-0.8,1.9-1.9,1.9
					C153.4,137.5,152.8,136.7,152.8,135.6z M155.8,135.6L155.8,135.6c0-0.8-0.5-1.3-1.3-1.3s-1.2,0.7-1.2,1.3l0,0
					c0,0.8,0.5,1.3,1.3,1.3C155.3,136.9,155.8,136.4,155.8,135.6z"/>
				<path class="st1" d="M156.8,133.8h0.5l0.9,2.8l0.9-2.8h0.4l0.9,2.8l0.9-2.8h0.5l-1.2,3.5h-0.4l-0.9-2.7l-0.9,2.7h-0.4
					L156.8,133.8z"/>
				<path class="st1" d="M162.5,135.6L162.5,135.6c0-1.1,0.7-1.9,1.6-1.9c1.1,0,1.6,0.8,1.6,1.9v0.1h-2.8c0.1,0.8,0.7,1.2,1.2,1.2
					c0.5,0,0.8-0.1,1.1-0.5l0.3,0.3c-0.4,0.4-0.8,0.7-1.5,0.7C163.3,137.5,162.5,136.7,162.5,135.6z M165.2,135.4
					c0-0.7-0.4-1.2-1.1-1.2c-0.7,0-1.1,0.5-1.1,1.2H165.2z"/>
				<path class="st1" d="M166.7,133.8h0.5v0.9c0.3-0.5,0.8-0.9,1.5-0.9v0.5l0,0c-0.8,0-1.3,0.5-1.3,1.6v1.3h-0.5v-3.5H166.7z"/>
				<path class="st1" d="M169.1,135.6L169.1,135.6c0-1.1,0.7-1.9,1.6-1.9c1.1,0,1.6,0.8,1.6,1.9v0.1h-2.8c0.1,0.8,0.7,1.2,1.2,1.2
					c0.5,0,0.8-0.1,1.1-0.5l0.3,0.3c-0.4,0.4-0.8,0.7-1.5,0.7C169.7,137.5,169.1,136.7,169.1,135.6z M171.7,135.4
					c0-0.7-0.4-1.2-1.1-1.2s-1.1,0.5-1.1,1.2H171.7z"/>
				<path class="st1" d="M173,135.6L173,135.6c0-1.2,0.8-1.9,1.6-1.9c0.7,0,1.1,0.4,1.3,0.8v-2.1h0.5v4.9h-0.5v-0.7
					c-0.3,0.4-0.7,0.8-1.3,0.8C173.8,137.5,173,136.8,173,135.6z M176,135.6L176,135.6c0-0.8-0.7-1.3-1.2-1.3
					c-0.7,0-1.2,0.5-1.2,1.3l0,0c0,0.8,0.5,1.3,1.2,1.3C175.4,136.9,176,136.4,176,135.6z"/>
				<path class="st1" d="M180.2,136.7v0.7h-0.5v-4.9h0.5v2.1c0.3-0.4,0.7-0.8,1.3-0.8c0.8,0,1.6,0.7,1.6,1.7l0,0
					c0,1.1-0.8,1.7-1.6,1.7C180.8,137.5,180.4,137.1,180.2,136.7z M182.6,135.6L182.6,135.6c0-0.8-0.5-1.3-1.2-1.3s-1.2,0.5-1.2,1.3
					l0,0c0,0.8,0.7,1.3,1.2,1.3C182,136.9,182.6,136.5,182.6,135.6z"/>
				<path class="st1" d="M186.5,133.8h0.5l-1.5,3.6c-0.3,0.7-0.7,0.9-1.2,0.9c-0.3,0-0.5,0-0.8-0.1l0.1-0.4c0.1,0.1,0.3,0.1,0.5,0.1
					s0.5-0.1,0.7-0.7l-1.6-3.5h0.5l1.2,2.9L186.5,133.8z"/>
			</g>
			<g id="XMLID_3_">
				<path class="st1" d="M231.1,134.4h-0.5V134h0.5v-0.3c0-0.4,0.1-0.7,0.3-0.9c0.1-0.1,0.4-0.3,0.8-0.3c0.3,0,0.4,0,0.5,0.1v0.4
					c-0.1,0-0.3-0.1-0.5-0.1c-0.4,0-0.7,0.3-0.7,0.8v0.3h1.1v0.4h-1.1v2.9H231v-2.9H231.1z"/>
				<path class="st1" d="M233,136.4L233,136.4c0-0.8,0.7-1.1,1.5-1.1c0.4,0,0.8,0,1.1,0.1v-0.1c0-0.7-0.4-0.9-1.1-0.9
					c-0.4,0-0.7,0.1-1.1,0.3l-0.1-0.4c0.4-0.1,0.8-0.3,1.2-0.3c0.5,0,0.8,0.1,1.1,0.4c0.3,0.3,0.4,0.5,0.4,1.1v2.1h-0.5v-0.5
					c-0.3,0.3-0.7,0.5-1.2,0.5C233.7,137.5,233,137.1,233,136.4z M235.6,136.1v-0.4c-0.3-0.1-0.5-0.1-1.1-0.1
					c-0.7,0-1.1,0.3-1.1,0.7l0,0c0,0.4,0.4,0.7,0.9,0.7C235.2,137.1,235.6,136.7,235.6,136.1z"/>
				<path class="st1" d="M237.2,133.8h0.5v0.5c0.3-0.4,0.5-0.7,1.1-0.7c0.5,0,0.9,0.3,1.1,0.7c0.3-0.4,0.7-0.7,1.2-0.7
					c0.8,0,1.3,0.5,1.3,1.3v2.1h-0.5v-2c0-0.7-0.4-1.1-0.9-1.1c-0.5,0-0.9,0.4-0.9,1.1v2h-0.5v-2c0-0.7-0.4-1.1-0.9-1.1
					c-0.5,0-0.9,0.4-0.9,1.1v2H237v-3.3H237.2z"/>
				<path class="st1" d="M243.6,132.5h0.5v0.5h-0.5V132.5z M243.6,133.8h0.5v3.5h-0.5V133.8z"/>
				<path class="st1" d="M245.3,132.5h0.5v4.9h-0.5V132.5z"/>
				<path class="st1" d="M249.7,133.8h0.5l-1.5,3.6c-0.3,0.7-0.7,0.9-1.2,0.9c-0.3,0-0.5,0-0.8-0.1l0.1-0.4c0.1,0.1,0.3,0.1,0.5,0.1
					c0.3,0,0.5-0.1,0.7-0.7l-1.6-3.5h0.5l1.2,2.9L249.7,133.8z"/>
			</g>
		</g>
	</g>
</g>
</svg>
