<?xml version="1.0" encoding="utf-8"?>
<!-- Generator: Adobe Illustrator 24.0.0, SVG Export Plug-In . SVG Version: 6.00 Build 0)  -->
<svg version="1.1" id="Capa_1" xmlns="http://www.w3.org/2000/svg" xmlns:xlink="http://www.w3.org/1999/xlink" x="0px" y="0px"
	 viewBox="0 0 152.3 200" style="enable-background:new 0 0 152.3 200;" xml:space="preserve">
<style type="text/css">
	.st0{fill:#FFFFFF;}
	.st1{fill:#E2161D;}
</style>
<g>
	<g>
		<g>
			<g>
				<path class="st0" d="M43.4,128.4l-13.7,20.3L44,170.2H30.7l-8-12.6l-8,12.6h-13L16,148.9L2.3,128.4h13.3l7.3,11.7l7.5-11.7H43.4
					z"/>
				<path class="st0" d="M47.7,137.9H59v4.3c0.6-0.7,1.2-1.3,1.8-1.9c0.6-0.6,1.3-1.1,2.1-1.6c0.8-0.5,1.6-0.8,2.6-1.1
					c1-0.3,2.1-0.4,3.2-0.4c1.9,0,3.7,0.4,5.5,1.2c1.7,0.8,3.2,1.9,4.6,3.3c1.3,1.4,2.4,3.2,3.1,5.2c0.8,2.1,1.2,4.4,1.2,7v0.1
					c0,2.6-0.4,5-1.2,7.1c-0.8,2.1-1.8,3.9-3.1,5.3c-1.3,1.5-2.8,2.6-4.5,3.3c-1.7,0.8-3.5,1.2-5.5,1.2c-1.2,0-2.3-0.1-3.3-0.4
					c-1-0.3-1.9-0.6-2.7-1c-0.8-0.4-1.5-0.9-2.1-1.5c-0.6-0.6-1.2-1.2-1.7-1.8v13.5H47.7V137.9z M65.4,161.4c0.9,0,1.8-0.2,2.6-0.5
					c0.8-0.4,1.5-0.9,2.1-1.5c0.6-0.6,1.1-1.4,1.4-2.3c0.4-0.9,0.5-1.9,0.5-3v-0.1c0-1.1-0.2-2.1-0.5-3c-0.4-0.9-0.8-1.7-1.4-2.3
					c-0.6-0.7-1.3-1.2-2.1-1.5c-0.8-0.4-1.6-0.5-2.6-0.5c-0.9,0-1.8,0.2-2.6,0.5c-0.8,0.4-1.5,0.9-2.1,1.5c-0.6,0.7-1.1,1.4-1.4,2.3
					c-0.3,0.9-0.5,1.9-0.5,3v0.1c0,1.1,0.2,2.1,0.5,3c0.3,0.9,0.8,1.7,1.4,2.3c0.6,0.7,1.3,1.2,2.1,1.5
					C63.6,161.2,64.5,161.4,65.4,161.4z"/>
				<path class="st0" d="M88,137.9h11.3v6.5c0.9-2.2,2.2-3.9,3.8-5.2c1.6-1.3,3.7-1.9,6.4-1.8v11.9h-1c-3,0-5.3,0.9-6.9,2.6
					c-1.6,1.7-2.4,4.5-2.4,8.2v10.1H88V137.9z"/>
				<path class="st0" d="M129.4,170.9c-2.6,0-4.9-0.4-7.1-1.3c-2.1-0.9-4-2.1-5.6-3.6c-1.6-1.5-2.8-3.3-3.7-5.3
					c-0.9-2-1.3-4.2-1.3-6.5v-0.1c0-2.3,0.4-4.5,1.3-6.5c0.9-2,2.1-3.8,3.7-5.4c1.6-1.5,3.4-2.7,5.6-3.6c2.2-0.9,4.6-1.3,7.2-1.3
					c2.6,0,5,0.4,7.1,1.3c2.2,0.9,4,2.1,5.6,3.6c1.6,1.5,2.8,3.3,3.7,5.3c0.9,2,1.3,4.2,1.3,6.5v0.1c0,2.3-0.4,4.5-1.3,6.5
					c-0.9,2-2.1,3.8-3.7,5.4c-1.6,1.5-3.5,2.7-5.7,3.6C134.3,170.5,131.9,170.9,129.4,170.9z M129.5,161.3c1,0,2-0.2,2.8-0.6
					s1.5-0.9,2.1-1.5c0.6-0.7,1.1-1.4,1.4-2.3c0.3-0.9,0.5-1.8,0.5-2.7v-0.1c0-1-0.2-1.9-0.5-2.8c-0.3-0.9-0.8-1.7-1.4-2.3
					c-0.6-0.7-1.4-1.2-2.2-1.6c-0.9-0.4-1.8-0.6-2.8-0.6c-1,0-2,0.2-2.8,0.6c-0.8,0.4-1.5,0.9-2.1,1.5c-0.6,0.7-1,1.4-1.3,2.3
					c-0.3,0.9-0.5,1.8-0.5,2.8v0.1c0,1,0.2,1.9,0.5,2.8c0.3,0.9,0.8,1.6,1.4,2.3c0.6,0.7,1.3,1.2,2.2,1.6S128.5,161.3,129.5,161.3z"
					/>
			</g>
			<g>
				<polygon class="st1" points="114.6,74.9 133.8,102.3 133.8,47.5 				"/>
				<path class="st1" d="M76.5,74.9L44.8,29.6c-0.4-0.6-0.6-1.3-0.3-1.7c0.2-0.3,0.6-0.5,1.1-0.5h29.7h2.1c0.4,0,0.7,0.1,1.2,0.1
					l0.1,0c0,0,0.1,0,0.1,0c0,0,0,0,0,0l0,0c0.3,0.1,0.6,0.2,1,0.3c0.2,0.1,0.4,0.2,0.6,0.3c0.2,0.1,0.5,0.2,0.7,0.3
					c0,0,0.1,0,0.1,0.1l0.1,0.1c0.1,0.1,0.2,0.1,0.3,0.2c0.2,0.2,0.5,0.3,0.7,0.5l0,0c0,0,0,0,0.1,0.1c0.2,0.1,0.3,0.3,0.5,0.5
					c0.2,0.1,0.3,0.3,0.5,0.5c0.2,0.2,0.3,0.3,0.4,0.5c0.1,0.2,0.3,0.3,0.4,0.5l11.5,16.5l11.5-16.5c0.1-0.1,0.2-0.3,0.4-0.5
					c0.1-0.1,0.3-0.3,0.4-0.5c0.2-0.2,0.3-0.3,0.5-0.5c0.2-0.2,0.4-0.3,0.5-0.5c0,0,0,0,0.1-0.1l0,0c0.3-0.2,0.5-0.4,0.7-0.5
					c0.1-0.1,0.2-0.1,0.3-0.2l0.1-0.1c0,0,0.1,0,0.1-0.1c0.2-0.1,0.4-0.2,0.7-0.3c0.2-0.1,0.4-0.2,0.6-0.3c0.3-0.1,0.7-0.2,1-0.3
					l0,0c0,0,0,0,0,0c0,0,0.1,0,0.1,0l0.1,0c0.4-0.1,0.8-0.1,1.2-0.1h20V13.1c0-6.7-5.4-12.1-12.1-12.1H27.2
					c-6.7,0-12.1,5.4-12.1,12.1v94.4c0,6.7,5.4,12.1,12.1,12.1h18L76.5,74.9z"/>
				<path class="st1" d="M107.1,118.5l-11.5-16.5L84,118.5c-0.3,0.4-0.6,0.7-0.9,1.1H108C107.7,119.3,107.3,118.9,107.1,118.5"/>
			</g>
			<path class="st0" d="M136.7,11L136.7,11c0-3.8,3-6.9,6.8-6.9c3.8,0,6.8,3.1,6.8,6.8v0c0,3.7-3,6.8-6.8,6.8
				C139.7,17.8,136.7,14.7,136.7,11 M149.5,10.9L149.5,10.9c0-3.4-2.6-6.1-6-6.1c-3.4,0-6,2.8-6,6.1v0c0,3.3,2.6,6.1,6,6.1
				C146.9,17,149.5,14.3,149.5,10.9 M140.9,7.4h3c1.4,0,2.5,0.7,2.5,2.1c0,1.1-0.7,1.8-1.7,2.1l1.9,2.7h-1.4l-1.7-2.5H142v2.5h-1.1
				V7.4z M143.9,10.8c1,0,1.5-0.5,1.5-1.3c0-0.8-0.6-1.2-1.5-1.2H142v2.5H143.9z"/>
		</g>
	</g>
	<g>
		<path class="st0" d="M1.7,187.5h1.4l4.5,6.7l4.5-6.7h1.4v12.3h-1.4v-9.9l-4.5,6.6H7.5l-4.5-6.6v9.9H1.7V187.5z"/>
		<path class="st0" d="M18.5,194.7v-7.1h1.4v7.1c0,2.6,1.4,4.1,3.8,4.1c2.3,0,3.7-1.4,3.7-4.1v-7.1h1.4v7c0,3.6-2.1,5.4-5.1,5.4
			C20.6,200,18.5,198.1,18.5,194.7z"/>
		<path class="st0" d="M33,198l0.9-1c1.3,1.2,2.5,1.7,4.2,1.7c1.6,0,2.7-0.9,2.7-2.1v0c0-1.1-0.6-1.8-3.2-2.3
			c-2.8-0.6-4.1-1.5-4.1-3.5v0c0-1.9,1.7-3.4,4-3.4c1.8,0,3.1,0.5,4.3,1.5l-0.8,1.1c-1.1-0.9-2.3-1.3-3.5-1.3c-1.6,0-2.6,0.9-2.6,2
			v0c0,1.2,0.6,1.8,3.3,2.4c2.7,0.6,4,1.6,4,3.5v0c0,2.1-1.8,3.5-4.2,3.5C36,200,34.4,199.3,33,198z"/>
		<path class="st0" d="M46.9,187.5h1.4v12.3h-1.4V187.5z"/>
		<path class="st0" d="M53.1,193.7L53.1,193.7c0-3.5,2.6-6.4,6.2-6.4c2.2,0,3.6,0.8,4.8,1.9l-0.9,1c-1-1-2.2-1.7-3.9-1.7
			c-2.7,0-4.8,2.2-4.8,5v0c0,2.8,2.1,5.1,4.8,5.1c1.7,0,2.8-0.6,4-1.8l0.9,0.9c-1.3,1.3-2.7,2.2-4.9,2.2
			C55.7,200,53.1,197.2,53.1,193.7z"/>
		<path class="st0" d="M74.8,193.7L74.8,193.7c0-3.4,2.5-6.4,6.2-6.4c2.1,0,3.4,0.6,4.6,1.6l-0.9,1.1c-0.9-0.8-2-1.4-3.7-1.4
			c-2.7,0-4.7,2.3-4.7,5v0c0,2.9,1.9,5.1,4.9,5.1c1.4,0,2.7-0.5,3.5-1.2v-3.1h-3.7v-1.2H86v4.9c-1.1,1-2.9,1.9-4.9,1.9
			C77.2,200,74.8,197.2,74.8,193.7z"/>
		<path class="st0" d="M90.8,187.5h5.3c1.5,0,2.7,0.5,3.5,1.2c0.6,0.6,0.9,1.5,0.9,2.4v0c0,2-1.4,3.2-3.3,3.6l3.8,5h-1.7l-3.6-4.8
			h-3.5v4.8h-1.4V187.5z M96,193.8c1.8,0,3.2-0.9,3.2-2.5v0c0-1.5-1.2-2.4-3.1-2.4h-3.8v5H96z"/>
		<path class="st0" d="M104.7,193.7L104.7,193.7c0-3.4,2.5-6.4,6.3-6.4c3.7,0,6.2,2.9,6.2,6.3v0c0,3.4-2.5,6.3-6.3,6.3
			S104.7,197.1,104.7,193.7z M115.8,193.7L115.8,193.7c0-2.8-2-5.1-4.8-5.1c-2.8,0-4.8,2.2-4.8,5v0c0,2.8,2,5.1,4.8,5.1
			C113.8,198.7,115.8,196.5,115.8,193.7z"/>
		<path class="st0" d="M121.7,194.7v-7.1h1.4v7.1c0,2.6,1.4,4.1,3.8,4.1c2.3,0,3.7-1.4,3.7-4.1v-7.1h1.4v7c0,3.6-2.1,5.4-5.1,5.4
			C123.8,200,121.7,198.1,121.7,194.7z"/>
		<path class="st0" d="M137,187.5h4.6c2.8,0,4.6,1.5,4.6,3.9v0c0,2.6-2.2,4-4.8,4h-3v4.3H137V187.5z M141.4,194.2
			c2,0,3.4-1.1,3.4-2.7v0c0-1.8-1.3-2.7-3.3-2.7h-3.1v5.4H141.4z"/>
	</g>
</g>
</svg>
