<?xml version="1.0" encoding="utf-8"?>
<!-- Generator: Adobe Illustrator 24.0.0, SVG Export Plug-In . SVG Version: 6.00 Build 0)  -->
<svg version="1.1" id="Capa_1" xmlns="http://www.w3.org/2000/svg" xmlns:xlink="http://www.w3.org/1999/xlink" x="0px" y="0px"
	 viewBox="0 0 155.1 81.3" style="enable-background:new 0 0 155.1 81.3;" xml:space="preserve">
<style type="text/css">
	.st0{fill:#FFFFFF;}
	.st1{fill:#D11D32;}
	.st2{fill:#3A3971;}
</style>
<g>
	<rect x="0" class="st0" width="155.3" height="81.3"/>
	<rect x="0" y="-0.3" class="st1" width="155.1" height="6.4"/>
	<rect x="0" y="12.3" class="st1" width="155.1" height="6.4"/>
	<rect x="0" y="24.9" class="st1" width="155.1" height="6.4"/>
	<rect x="0" y="37.4" class="st1" width="155.1" height="6.4"/>
	<rect x="0" y="50" class="st1" width="155.1" height="6.4"/>
	<rect x="0" y="62.6" class="st1" width="155.1" height="6.4"/>
	<rect x="0" y="75.2" class="st1" width="155.1" height="6.4"/>
	<rect y="-0.3" class="st2" width="62" height="44.2"/>
	<g>
		<polygon class="st0" points="5.3,1.4 5.8,3.2 7.7,3.2 6.2,4.3 6.8,6.1 5.3,5 3.8,6.1 4.3,4.3 2.8,3.2 4.7,3.2 		"/>
		<polygon class="st0" points="10.4,5.9 11,7.7 12.8,7.7 11.3,8.8 11.9,10.6 10.4,9.5 8.9,10.6 9.4,8.8 7.9,7.7 9.8,7.7 		"/>
		<polygon class="st0" points="10.4,14.8 11,16.6 12.8,16.6 11.3,17.7 11.9,19.5 10.4,18.4 8.9,19.5 9.4,17.7 7.9,16.6 9.8,16.6 		
			"/>
		<polygon class="st0" points="10.4,23.6 11,25.4 12.8,25.4 11.3,26.6 11.9,28.4 10.4,27.2 8.9,28.4 9.4,26.6 7.9,25.4 9.8,25.4 		
			"/>
		<polygon class="st0" points="10.4,32.5 11,34.3 12.8,34.3 11.3,35.4 11.9,37.2 10.4,36.1 8.9,37.2 9.4,35.4 7.9,34.3 9.8,34.3 		
			"/>
		<polygon class="st0" points="20.7,5.9 21.3,7.7 23.2,7.7 21.7,8.8 22.2,10.6 20.7,9.5 19.2,10.6 19.8,8.8 18.3,7.7 20.1,7.7 		"/>
		<polygon class="st0" points="20.7,14.8 21.3,16.6 23.2,16.6 21.7,17.7 22.2,19.5 20.7,18.4 19.2,19.5 19.8,17.7 18.3,16.6 
			20.1,16.6 		"/>
		<polygon class="st0" points="20.7,23.6 21.3,25.4 23.2,25.4 21.7,26.6 22.2,28.4 20.7,27.2 19.2,28.4 19.8,26.6 18.3,25.4 
			20.1,25.4 		"/>
		<polygon class="st0" points="20.7,32.5 21.3,34.3 23.2,34.3 21.7,35.4 22.2,37.2 20.7,36.1 19.2,37.2 19.8,35.4 18.3,34.3 
			20.1,34.3 		"/>
		<polygon class="st0" points="31.1,5.9 31.7,7.7 33.5,7.7 32,8.8 32.6,10.6 31.1,9.5 29.6,10.6 30.1,8.8 28.6,7.7 30.5,7.7 		"/>
		<polygon class="st0" points="31.1,14.8 31.7,16.6 33.5,16.6 32,17.7 32.6,19.5 31.1,18.4 29.6,19.5 30.1,17.7 28.6,16.6 
			30.5,16.6 		"/>
		<polygon class="st0" points="31.1,23.6 31.7,25.4 33.5,25.4 32,26.6 32.6,28.4 31.1,27.2 29.6,28.4 30.1,26.6 28.6,25.4 
			30.5,25.4 		"/>
		<polygon class="st0" points="31.1,32.5 31.7,34.3 33.5,34.3 32,35.4 32.6,37.2 31.1,36.1 29.6,37.2 30.1,35.4 28.6,34.3 
			30.5,34.3 		"/>
		<polygon class="st0" points="41.4,5.9 42,7.7 43.9,7.7 42.4,8.8 43,10.6 41.4,9.5 39.9,10.6 40.5,8.8 39,7.7 40.9,7.7 		"/>
		<polygon class="st0" points="41.4,14.8 42,16.6 43.9,16.6 42.4,17.7 43,19.5 41.4,18.4 39.9,19.5 40.5,17.7 39,16.6 40.9,16.6 		
			"/>
		<polygon class="st0" points="41.4,23.6 42,25.4 43.9,25.4 42.4,26.6 43,28.4 41.4,27.2 39.9,28.4 40.5,26.6 39,25.4 40.9,25.4 		
			"/>
		<polygon class="st0" points="41.4,32.5 42,34.3 43.9,34.3 42.4,35.4 43,37.2 41.4,36.1 39.9,37.2 40.5,35.4 39,34.3 40.9,34.3 		
			"/>
		<polygon class="st0" points="51.8,5.9 52.4,7.7 54.2,7.7 52.7,8.8 53.3,10.6 51.8,9.5 50.3,10.6 50.8,8.8 49.3,7.7 51.2,7.7 		"/>
		<polygon class="st0" points="51.8,14.8 52.4,16.6 54.2,16.6 52.7,17.7 53.3,19.5 51.8,18.4 50.3,19.5 50.8,17.7 49.3,16.6 
			51.2,16.6 		"/>
		<polygon class="st0" points="51.8,23.6 52.4,25.4 54.2,25.4 52.7,26.6 53.3,28.4 51.8,27.2 50.3,28.4 50.8,26.6 49.3,25.4 
			51.2,25.4 		"/>
		<polygon class="st0" points="51.8,32.5 52.4,34.3 54.2,34.3 52.7,35.4 53.3,37.2 51.8,36.1 50.3,37.2 50.8,35.4 49.3,34.3 
			51.2,34.3 		"/>
		<polygon class="st0" points="5.3,10.2 5.8,12 7.7,12 6.2,13.2 6.8,15 5.3,13.8 3.8,15 4.3,13.2 2.8,12 4.7,12 		"/>
		<polygon class="st0" points="5.3,19.1 5.8,20.9 7.7,20.9 6.2,22 6.8,23.8 5.3,22.7 3.8,23.8 4.3,22 2.8,20.9 4.7,20.9 		"/>
		<polygon class="st0" points="5.3,28 5.8,29.8 7.7,29.8 6.2,30.9 6.8,32.7 5.3,31.6 3.8,32.7 4.3,30.9 2.8,29.8 4.7,29.8 		"/>
		<polygon class="st0" points="5.3,36.8 5.8,38.6 7.7,38.6 6.2,39.7 6.8,41.5 5.3,40.4 3.8,41.5 4.3,39.7 2.8,38.6 4.7,38.6 		"/>
		<polygon class="st0" points="15.5,1.4 16.1,3.2 17.9,3.2 16.4,4.3 17,6.1 15.5,5 14,6.1 14.5,4.3 13,3.2 14.9,3.2 		"/>
		<polygon class="st0" points="15.5,10.2 16.1,12 17.9,12 16.4,13.2 17,15 15.5,13.8 14,15 14.5,13.2 13,12 14.9,12 		"/>
		<polygon class="st0" points="15.5,19.1 16.1,20.9 17.9,20.9 16.4,22 17,23.8 15.5,22.7 14,23.8 14.5,22 13,20.9 14.9,20.9 		"/>
		<polygon class="st0" points="15.5,28 16.1,29.8 17.9,29.8 16.4,30.9 17,32.7 15.5,31.6 14,32.7 14.5,30.9 13,29.8 14.9,29.8 		"/>
		<polygon class="st0" points="15.5,36.8 16.1,38.6 17.9,38.6 16.4,39.7 17,41.5 15.5,40.4 14,41.5 14.5,39.7 13,38.6 14.9,38.6 		
			"/>
		<polygon class="st0" points="26,1.4 26.6,3.2 28.4,3.2 26.9,4.3 27.5,6.1 26,5 24.5,6.1 25,4.3 23.5,3.2 25.4,3.2 		"/>
		<polygon class="st0" points="26,10.2 26.6,12 28.4,12 26.9,13.2 27.5,15 26,13.8 24.5,15 25,13.2 23.5,12 25.4,12 		"/>
		<polygon class="st0" points="26,19.1 26.6,20.9 28.4,20.9 26.9,22 27.5,23.8 26,22.7 24.5,23.8 25,22 23.5,20.9 25.4,20.9 		"/>
		<polygon class="st0" points="26,28 26.6,29.8 28.4,29.8 26.9,30.9 27.5,32.7 26,31.6 24.5,32.7 25,30.9 23.5,29.8 25.4,29.8 		"/>
		<polygon class="st0" points="26,36.8 26.6,38.6 28.4,38.6 26.9,39.7 27.5,41.5 26,40.4 24.5,41.5 25,39.7 23.5,38.6 25.4,38.6 		
			"/>
		<polygon class="st0" points="36.3,1.4 36.8,3.2 38.7,3.2 37.2,4.3 37.8,6.1 36.3,5 34.7,6.1 35.3,4.3 33.8,3.2 35.7,3.2 		"/>
		<polygon class="st0" points="36.3,10.2 36.8,12 38.7,12 37.2,13.2 37.8,15 36.3,13.8 34.7,15 35.3,13.2 33.8,12 35.7,12 		"/>
		<polygon class="st0" points="36.3,19.1 36.8,20.9 38.7,20.9 37.2,22 37.8,23.8 36.3,22.7 34.7,23.8 35.3,22 33.8,20.9 35.7,20.9 
					"/>
		<polygon class="st0" points="36.3,28 36.8,29.8 38.7,29.8 37.2,30.9 37.8,32.7 36.3,31.6 34.7,32.7 35.3,30.9 33.8,29.8 
			35.7,29.8 		"/>
		<polygon class="st0" points="36.3,36.8 36.8,38.6 38.7,38.6 37.2,39.7 37.8,41.5 36.3,40.4 34.7,41.5 35.3,39.7 33.8,38.6 
			35.7,38.6 		"/>
		<polygon class="st0" points="46.5,1.4 47.1,3.2 49,3.2 47.5,4.3 48.1,6.1 46.5,5 45,6.1 45.6,4.3 44.1,3.2 46,3.2 		"/>
		<polygon class="st0" points="46.5,10.2 47.1,12 49,12 47.5,13.2 48.1,15 46.5,13.8 45,15 45.6,13.2 44.1,12 46,12 		"/>
		<polygon class="st0" points="46.5,19.1 47.1,20.9 49,20.9 47.5,22 48.1,23.8 46.5,22.7 45,23.8 45.6,22 44.1,20.9 46,20.9 		"/>
		<polygon class="st0" points="46.5,28 47.1,29.8 49,29.8 47.5,30.9 48.1,32.7 46.5,31.6 45,32.7 45.6,30.9 44.1,29.8 46,29.8 		"/>
		<polygon class="st0" points="46.5,36.8 47.1,38.6 49,38.6 47.5,39.7 48.1,41.5 46.5,40.4 45,41.5 45.6,39.7 44.1,38.6 46,38.6 		
			"/>
		<polygon class="st0" points="57,1.4 57.6,3.2 59.5,3.2 58,4.3 58.5,6.1 57,5 55.5,6.1 56.1,4.3 54.6,3.2 56.4,3.2 		"/>
		<polygon class="st0" points="57,10.2 57.6,12 59.5,12 58,13.2 58.5,15 57,13.8 55.5,15 56.1,13.2 54.6,12 56.4,12 		"/>
		<polygon class="st0" points="57,19.1 57.6,20.9 59.5,20.9 58,22 58.5,23.8 57,22.7 55.5,23.8 56.1,22 54.6,20.9 56.4,20.9 		"/>
		<polygon class="st0" points="57,28 57.6,29.8 59.5,29.8 58,30.9 58.5,32.7 57,31.6 55.5,32.7 56.1,30.9 54.6,29.8 56.4,29.8 		"/>
		<polygon class="st0" points="57,36.8 57.6,38.6 59.5,38.6 58,39.7 58.5,41.5 57,40.4 55.5,41.5 56.1,39.7 54.6,38.6 56.4,38.6 		
			"/>
	</g>
</g>
</svg>
