<?xml version="1.0" encoding="utf-8"?>
<!-- Generator: Adobe Illustrator 24.0.0, SVG Export Plug-In . SVG Version: 6.00 Build 0)  -->
<svg version="1.1" id="Capa_1" xmlns="http://www.w3.org/2000/svg" xmlns:xlink="http://www.w3.org/1999/xlink" x="0px" y="0px"
	 viewBox="0 0 200 200" style="enable-background:new 0 0 200 200;" xml:space="preserve">
<style type="text/css">
	.st0{fill:#FF020D;}
	.st1{fill:#1E1E1E;}
	.st2{font-family:'Gotham-Black';}
	.st3{font-size:64.9237px;}
	.st4{letter-spacing:-1;}
</style>
<g>
	<g>
		<g>
			<polygon class="st0" points="141.3,80.5 162.2,110.4 162.2,50.7 			"/>
			<path class="st0" d="M99.8,80.5L65.2,31.2c-0.5-0.7-0.6-1.4-0.4-1.8c0.2-0.4,0.6-0.6,1.2-0.6h32.4h2.3c0.4,0,0.8,0.1,1.3,0.2
				l0.1,0c0,0,0.1,0,0.1,0c0,0,0,0,0.1,0l0,0c0.3,0.1,0.7,0.2,1.1,0.4c0.2,0.1,0.4,0.2,0.6,0.3c0.3,0.1,0.5,0.3,0.7,0.4
				c0,0,0.1,0,0.1,0.1l0.1,0.1c0.1,0.1,0.2,0.1,0.3,0.2c0.3,0.2,0.5,0.4,0.8,0.6l0,0c0,0,0,0,0.1,0.1c0.2,0.1,0.4,0.3,0.6,0.5
				c0.2,0.2,0.4,0.3,0.5,0.5c0.2,0.2,0.3,0.3,0.4,0.5c0.2,0.2,0.3,0.4,0.4,0.5l12.6,18l12.6-18c0.1-0.2,0.2-0.3,0.4-0.5
				c0.1-0.2,0.3-0.3,0.4-0.5c0.2-0.2,0.3-0.4,0.5-0.5c0.2-0.2,0.4-0.4,0.6-0.5c0,0,0.1,0,0.1-0.1l0.1,0c0.3-0.2,0.5-0.4,0.8-0.6
				c0.1-0.1,0.2-0.1,0.3-0.2l0.1-0.1c0,0,0.1,0,0.1-0.1c0.2-0.1,0.4-0.2,0.7-0.4c0.2-0.1,0.4-0.2,0.6-0.3c0.4-0.1,0.7-0.3,1.1-0.4
				l0,0c0,0,0,0,0.1,0c0,0,0.1,0,0.1,0l0.1,0c0.5-0.1,0.9-0.2,1.3-0.2h21.8V13.2C162.2,5.9,156.3,0,149,0H46.1
				c-7.3,0-13.2,5.9-13.2,13.2v102.9c0,7.2,5.9,13.2,13.2,13.2h19.6L99.8,80.5z"/>
			<path class="st0" d="M133.1,128.1l-12.6-17.9L108,128.1c-0.3,0.4-0.6,0.8-1,1.2h27.2C133.7,128.9,133.4,128.5,133.1,128.1z"/>
		</g>
	</g>
	<g>
		<g>
			<path class="st1" d="M165.6,10.9L165.6,10.9c0-4.1,3.3-7.5,7.4-7.5c4.2,0,7.4,3.4,7.4,7.4v0c0,4-3.3,7.5-7.4,7.5
				C168.8,18.3,165.6,14.9,165.6,10.9z M179.6,10.8L179.6,10.8c0-3.7-2.8-6.6-6.6-6.6c-3.7,0-6.6,3-6.6,6.6v0c0,3.6,2.8,6.6,6.6,6.6
				C176.7,17.5,179.6,14.5,179.6,10.8z M170.2,7h3.3c1.5,0,2.8,0.8,2.8,2.3c0,1.2-0.8,2-1.8,2.3l2.1,2.9h-1.5l-1.9-2.7h-1.8v2.7
				h-1.2V7z M173.4,10.7c1.1,0,1.7-0.6,1.7-1.4c0-0.9-0.6-1.3-1.7-1.3h-2v2.7H173.4z"/>
		</g>
	</g>
	<g>
		<text transform="matrix(1 0 0 1 19.5771 189.6235)" class="st1 st2 st3 st4">Xpro</text>
	</g>
</g>
</svg>
