<?xml version="1.0" encoding="utf-8"?>
<!-- Generator: Adobe Illustrator 24.0.0, SVG Export Plug-In . SVG Version: 6.00 Build 0)  -->
<svg version="1.1" id="Capa_1" xmlns="http://www.w3.org/2000/svg" xmlns:xlink="http://www.w3.org/1999/xlink" x="0px" y="0px"
	 viewBox="0 0 200 67.9" style="enable-background:new 0 0 200 67.9;" xml:space="preserve">
<style type="text/css">
	.st0{fill:#FFFFFF;}
</style>
<g>
	<g>
		<g>
			<path class="st0" d="M54.8,0L36.6,26.9l18.9,28.5H38L27.4,38.6L16.8,55.3H-0.4l18.9-28.2L0.4,0H18l9.7,15.5L37.6,0H54.8z"/>
			<path class="st0" d="M60.5,12.6h15v5.7c0.8-0.9,1.6-1.7,2.4-2.5c0.8-0.8,1.7-1.5,2.8-2.1c1.1-0.7,2.1-1.1,3.4-1.5
				c1.3-0.4,2.8-0.5,4.2-0.5c2.5,0,4.9,0.5,7.3,1.6c2.2,1.1,4.2,2.5,6.1,4.4c1.7,1.9,3.2,4.2,4.1,6.9c1.1,2.8,1.6,5.8,1.6,9.3v0.1
				c0,3.4-0.5,6.6-1.6,9.4c-1.1,2.8-2.4,5.2-4.1,7c-1.7,2-3.7,3.4-6,4.4c-2.2,1.1-4.6,1.6-7.3,1.6c-1.6,0-3-0.1-4.4-0.5
				c-1.3-0.4-2.5-0.8-3.6-1.3c-1.1-0.5-2-1.2-2.8-2s-1.6-1.6-2.2-2.4v17.9h-15V12.6z M83.9,43.7c1.2,0,2.4-0.3,3.4-0.7
				c1.1-0.5,2-1.2,2.8-2s1.5-1.9,1.9-3c0.5-1.2,0.7-2.5,0.7-4v-0.1c0-1.5-0.3-2.8-0.7-4c-0.5-1.2-1.1-2.2-1.9-3
				c-0.8-0.9-1.7-1.6-2.8-2c-1.1-0.5-2.1-0.7-3.4-0.7c-1.2,0-2.4,0.3-3.4,0.7c-1.1,0.5-2,1.2-2.8,2c-0.8,0.9-1.5,1.9-1.9,3
				c-0.4,1.2-0.7,2.5-0.7,4V34c0,1.5,0.3,2.8,0.7,4c0.4,1.2,1.1,2.2,1.9,3c0.8,0.9,1.7,1.6,2.8,2C81.5,43.4,82.7,43.7,83.9,43.7z"/>
			<path class="st0" d="M113.8,12.6h15v8.6c1.2-2.9,2.9-5.2,5-6.9s4.9-2.5,8.5-2.4v15.7h-1.3c-4,0-7,1.2-9.1,3.4
				c-2.1,2.2-3.2,6-3.2,10.9v13.4h-14.8V12.6z"/>
			<path class="st0" d="M168.6,56.2c-3.4,0-6.5-0.5-9.4-1.7c-2.8-1.2-5.3-2.8-7.4-4.8c-2.1-2-3.7-4.4-4.9-7
				c-1.2-2.6-1.7-5.6-1.7-8.6V34c0-3,0.5-6,1.7-8.6c1.2-2.6,2.8-5,4.9-7.1c2.1-2,4.5-3.6,7.4-4.8c2.9-1.2,6.1-1.7,9.5-1.7
				s6.6,0.5,9.4,1.7c2.9,1.2,5.3,2.8,7.4,4.8s3.7,4.4,4.9,7c1.2,2.6,1.7,5.6,1.7,8.6V34c0,3-0.5,6-1.7,8.6c-1.2,2.6-2.8,5-4.9,7.1
				c-2.1,2-4.6,3.6-7.5,4.8C175.1,55.7,171.9,56.2,168.6,56.2z M168.7,43.7c1.3,0,2.6-0.3,3.7-0.8s2-1.2,2.8-2
				c0.8-0.9,1.5-1.9,1.9-3c0.4-1.2,0.7-2.4,0.7-3.6v-0.1c0-1.3-0.3-2.5-0.7-3.7c-0.4-1.2-1.1-2.2-1.9-3c-0.8-0.9-1.9-1.6-2.9-2.1
				c-1.2-0.5-2.4-0.8-3.7-0.8s-2.6,0.3-3.7,0.8c-1.1,0.5-2,1.2-2.8,2c-0.8,0.9-1.3,1.9-1.7,3c-0.4,1.2-0.7,2.4-0.7,3.7v0.1
				c0,1.3,0.3,2.5,0.7,3.7c0.4,1.2,1.1,2.1,1.9,3c0.8,0.9,1.7,1.6,2.9,2.1C166.3,43.5,167.4,43.7,168.7,43.7z"/>
		</g>
		<path class="st0" d="M187.9,6L187.9,6c0-3.3,2.6-6,5.9-6c3.3,0,5.9,2.7,5.9,5.9l0,0c0,3.2-2.6,5.9-5.9,5.9
			C190.5,11.8,187.9,9.2,187.9,6 M199,5.9L199,5.9c0-3-2.3-5.3-5.2-5.3c-3,0-5.2,2.4-5.2,5.3l0,0c0,2.9,2.3,5.3,5.2,5.3
			C196.8,11.2,199,8.9,199,5.9 M191.5,2.9h2.6c1.2,0,2.2,0.6,2.2,1.8c0,1-0.6,1.6-1.5,1.8l1.7,2.3h-1.2l-1.5-2.2h-1.3v2.2h-1V2.9z
			 M194.1,5.8c0.9,0,1.3-0.4,1.3-1.1s-0.5-1-1.3-1h-1.7v2.2H194.1z"/>
	</g>
</g>
</svg>
