<?xml version="1.0" encoding="utf-8"?>
<!-- Generator: Adobe Illustrator 24.0.0, SVG Export Plug-In . SVG Version: 6.00 Build 0)  -->
<svg version="1.1" id="Capa_1" xmlns="http://www.w3.org/2000/svg" xmlns:xlink="http://www.w3.org/1999/xlink" x="0px" y="0px"
	 viewBox="0 0 200 200" style="enable-background:new 0 0 200 200;" xml:space="preserve">
<style type="text/css">
	.st0{fill:#FF020D;}
	.st1{fill:#1E1E1E;}
	.st2{enable-background:new    ;}
</style>
<g>
	<g>
		<g>
			<polygon class="st0" points="141.3,80.5 162.2,110.4 162.2,50.7 			"/>
			<path class="st0" d="M99.8,80.5L65.2,31.2c-0.5-0.7-0.6-1.4-0.4-1.8s0.6-0.6,1.2-0.6h32.4h2.3c0.4,0,0.8,0.1,1.3,0.2h0.1h0.1
				c0,0,0,0,0.1,0l0,0c0.3,0.1,0.7,0.2,1.1,0.4c0.2,0.1,0.4,0.2,0.6,0.3c0.3,0.1,0.5,0.3,0.7,0.4c0,0,0.1,0,0.1,0.1l0.1,0.1
				c0.1,0.1,0.2,0.1,0.3,0.2c0.3,0.2,0.5,0.4,0.8,0.6l0,0c0,0,0,0,0.1,0.1c0.2,0.1,0.4,0.3,0.6,0.5s0.4,0.3,0.5,0.5
				c0.2,0.2,0.3,0.3,0.4,0.5c0.2,0.2,0.3,0.4,0.4,0.5l12.6,18l12.6-18c0.1-0.2,0.2-0.3,0.4-0.5c0.1-0.2,0.3-0.3,0.4-0.5
				c0.2-0.2,0.3-0.4,0.5-0.5c0.2-0.2,0.4-0.4,0.6-0.5c0,0,0.1,0,0.1-0.1h0.1c0.3-0.2,0.5-0.4,0.8-0.6c0.1-0.1,0.2-0.1,0.3-0.2
				l0.1-0.1c0,0,0.1,0,0.1-0.1c0.2-0.1,0.4-0.2,0.7-0.4c0.2-0.1,0.4-0.2,0.6-0.3c0.4-0.1,0.7-0.3,1.1-0.4l0,0c0,0,0,0,0.1,0h0.1h0.1
				c0.5-0.1,0.9-0.2,1.3-0.2h21.8V13.2C162.2,5.9,156.3,0,149,0H46.1c-7.3,0-13.2,5.9-13.2,13.2v102.9c0,7.2,5.9,13.2,13.2,13.2
				h19.6L99.8,80.5z"/>
			<path class="st0" d="M133.1,128.1l-12.6-17.9L108,128.1c-0.3,0.4-0.6,0.8-1,1.2h27.2C133.7,128.9,133.4,128.5,133.1,128.1z"/>
		</g>
	</g>
	<g>
		<g>
			<path class="st1" d="M165.6,10.9L165.6,10.9c0-4.1,3.3-7.5,7.4-7.5c4.2,0,7.4,3.4,7.4,7.4l0,0c0,4-3.3,7.5-7.4,7.5
				C168.8,18.3,165.6,14.9,165.6,10.9z M179.6,10.8L179.6,10.8c0-3.7-2.8-6.6-6.6-6.6c-3.7,0-6.6,3-6.6,6.6l0,0
				c0,3.6,2.8,6.6,6.6,6.6C176.7,17.5,179.6,14.5,179.6,10.8z M170.2,7h3.3c1.5,0,2.8,0.8,2.8,2.3c0,1.2-0.8,2-1.8,2.3l2.1,2.9h-1.5
				l-1.9-2.7h-1.8v2.7h-1.2L170.2,7L170.2,7z M173.4,10.7c1.1,0,1.7-0.6,1.7-1.4c0-0.9-0.6-1.3-1.7-1.3h-2v2.7H173.4z"/>
		</g>
	</g>
	<g>
		<g class="st2">
			<path class="st1" d="M65.7,144.2l-14.9,22.1l15.6,23.3H51.9l-8.7-13.8l-8.8,13.8H20.3l15.6-23.1l-14.9-22.3h14.5l8,12.8l8.2-12.8
				H65.7z"/>
			<path class="st1" d="M69.4,154.5h12.3v4.7c2.4-2.9,5.4-5.5,10.6-5.5c8.4,0,15.6,6.9,15.6,18.2v0.1c0,11.4-7.2,18.4-15.5,18.4
				c-5.3,0-8.4-2.4-10.7-5.1V200H69.4V154.5z M95.9,172.1V172c0-4.7-3.2-8-7.2-8c-4,0-7.2,3.3-7.2,8v0.1c0,4.7,3.2,8,7.2,8
				C92.7,180.1,95.9,176.8,95.9,172.1z"/>
			<path class="st1" d="M112.4,154.5h12.3v7.1c2-4.8,5.3-7.9,11.1-7.7v13h-1c-6.4,0-10.1,3.7-10.1,11.8v11h-12.3V154.5z"/>
			<path class="st1" d="M137.2,172.2v-0.1c0-10,8.2-18.4,19.4-18.4s19.3,8.2,19.3,18.2v0.1c0,10-8.2,18.4-19.5,18.4
				C145.3,190.5,137.2,182.2,137.2,172.2z M164,172.2v-0.1c0-4.3-3.2-8-7.5-8c-4.5,0-7.3,3.6-7.3,7.9v0.1c0,4.3,3.1,7.9,7.5,7.9
				C161,180,164,176.4,164,172.2z"/>
		</g>
	</g>
</g>
</svg>
