<?xml version="1.0" encoding="utf-8"?>
<!-- Generator: Adobe Illustrator 24.0.0, SVG Export Plug-In . SVG Version: 6.00 Build 0)  -->
<svg version="1.1" id="Capa_1" xmlns="http://www.w3.org/2000/svg" xmlns:xlink="http://www.w3.org/1999/xlink" x="0px" y="0px"
	 viewBox="0 0 200 179.2" style="enable-background:new 0 0 200 179.2;" xml:space="preserve">
<style type="text/css">
	.st0{fill:#232323;}
	.st1{fill:#E2161D;}
</style>
<g>
	<g>
		<g>
			<g>
				<path class="st0" d="M67.4,127.8l-13.7,20.3L68,169.6H54.7l-8-12.6l-8,12.6h-13L40,148.3l-13.7-20.5h13.3l7.3,11.7l7.5-11.7
					H67.4z"/>
				<path class="st0" d="M71.7,137.3H83v4.3c0.6-0.7,1.2-1.3,1.8-1.9c0.6-0.6,1.3-1.1,2.1-1.6c0.8-0.5,1.6-0.8,2.6-1.1
					s2.1-0.4,3.2-0.4c1.9,0,3.7,0.4,5.5,1.2c1.7,0.8,3.2,1.9,4.6,3.3c1.3,1.4,2.4,3.2,3.1,5.2c0.8,2.1,1.2,4.4,1.2,7v0.1
					c0,2.6-0.4,5-1.2,7.1c-0.8,2.1-1.8,3.9-3.1,5.3c-1.3,1.5-2.8,2.6-4.5,3.3c-1.7,0.8-3.5,1.2-5.5,1.2c-1.2,0-2.3-0.1-3.3-0.4
					c-1-0.3-1.9-0.6-2.7-1c-0.8-0.4-1.5-0.9-2.1-1.5s-1.2-1.2-1.7-1.8v13.5H71.7V137.3z M89.4,160.8c0.9,0,1.8-0.2,2.6-0.5
					c0.8-0.4,1.5-0.9,2.1-1.5s1.1-1.4,1.4-2.3c0.4-0.9,0.5-1.9,0.5-3v-0.1c0-1.1-0.2-2.1-0.5-3c-0.4-0.9-0.8-1.7-1.4-2.3
					c-0.6-0.7-1.3-1.2-2.1-1.5c-0.8-0.4-1.6-0.5-2.6-0.5c-0.9,0-1.8,0.2-2.6,0.5c-0.8,0.4-1.5,0.9-2.1,1.5c-0.6,0.7-1.1,1.4-1.4,2.3
					c-0.3,0.9-0.5,1.9-0.5,3v0.1c0,1.1,0.2,2.1,0.5,3c0.3,0.9,0.8,1.7,1.4,2.3c0.6,0.7,1.3,1.2,2.1,1.5
					C87.6,160.6,88.5,160.8,89.4,160.8z"/>
				<path class="st0" d="M112,137.3h11.3v6.5c0.9-2.2,2.2-3.9,3.8-5.2c1.6-1.3,3.7-1.9,6.4-1.8v11.9h-1c-3,0-5.3,0.9-6.9,2.6
					c-1.6,1.7-2.4,4.5-2.4,8.2v10.1H112V137.3z"/>
				<path class="st0" d="M153.4,170.3c-2.6,0-4.9-0.4-7.1-1.3c-2.1-0.9-4-2.1-5.6-3.6c-1.6-1.5-2.8-3.3-3.7-5.3
					c-0.9-2-1.3-4.2-1.3-6.5v-0.1c0-2.3,0.4-4.5,1.3-6.5c0.9-2,2.1-3.8,3.7-5.4c1.6-1.5,3.4-2.7,5.6-3.6c2.2-0.9,4.6-1.3,7.2-1.3
					s5,0.4,7.1,1.3c2.2,0.9,4,2.1,5.6,3.6s2.8,3.3,3.7,5.3s1.3,4.2,1.3,6.5v0.1c0,2.3-0.4,4.5-1.3,6.5c-0.9,2-2.1,3.8-3.7,5.4
					c-1.6,1.5-3.5,2.7-5.7,3.6C158.3,169.9,155.9,170.3,153.4,170.3z M153.5,160.8c1,0,2-0.2,2.8-0.6s1.5-0.9,2.1-1.5
					c0.6-0.7,1.1-1.4,1.4-2.3c0.3-0.9,0.5-1.8,0.5-2.7v-0.1c0-1-0.2-1.9-0.5-2.8c-0.3-0.9-0.8-1.7-1.4-2.3c-0.6-0.7-1.4-1.2-2.2-1.6
					c-0.9-0.4-1.8-0.6-2.8-0.6s-2,0.2-2.8,0.6c-0.8,0.4-1.5,0.9-2.1,1.5c-0.6,0.7-1,1.4-1.3,2.3c-0.3,0.9-0.5,1.8-0.5,2.8v0.1
					c0,1,0.2,1.9,0.5,2.8c0.3,0.9,0.8,1.6,1.4,2.3c0.6,0.7,1.3,1.2,2.2,1.6S152.5,160.8,153.5,160.8z"/>
			</g>
			<g>
				<polygon class="st1" points="138.6,74.4 157.8,101.8 157.8,47 				"/>
				<path class="st1" d="M100.5,74.4L68.8,29.1c-0.4-0.6-0.6-1.3-0.3-1.7c0.2-0.3,0.6-0.5,1.1-0.5h29.7h2.1c0.4,0,0.7,0.1,1.2,0.1
					h0.1h0.1l0,0l0,0c0.3,0.1,0.6,0.2,1,0.3c0.2,0.1,0.4,0.2,0.6,0.3c0.2,0.1,0.5,0.2,0.7,0.3c0,0,0.1,0,0.1,0.1l0.1,0.1
					c0.1,0.1,0.2,0.1,0.3,0.2c0.2,0.2,0.5,0.3,0.7,0.5l0,0c0,0,0,0,0.1,0.1c0.2,0.1,0.3,0.3,0.5,0.5c0.2,0.1,0.3,0.3,0.5,0.5
					s0.3,0.3,0.4,0.5s0.3,0.3,0.4,0.5l11.5,16.5l11.5-16.5c0.1-0.1,0.2-0.3,0.4-0.5c0.1-0.1,0.3-0.3,0.4-0.5
					c0.2-0.2,0.3-0.3,0.5-0.5s0.4-0.3,0.5-0.5c0,0,0,0,0.1-0.1l0,0c0.3-0.2,0.5-0.4,0.7-0.5c0.1-0.1,0.2-0.1,0.3-0.2l0.1-0.1
					c0,0,0.1,0,0.1-0.1c0.2-0.1,0.4-0.2,0.7-0.3c0.2-0.1,0.4-0.2,0.6-0.3c0.3-0.1,0.7-0.2,1-0.3l0,0l0,0h0.1h0.1
					c0.4-0.1,0.8-0.1,1.2-0.1h20V12.6c0-6.7-5.4-12.1-12.1-12.1H51.2c-6.7,0-12.1,5.4-12.1,12.1V107c0,6.7,5.4,12.1,12.1,12.1h18
					L100.5,74.4z"/>
				<path class="st1" d="M131.1,118l-11.5-16.5L108,118c-0.3,0.4-0.6,0.7-0.9,1.1H132C131.7,118.8,131.3,118.4,131.1,118"/>
			</g>
			<path class="st0" d="M160.7,10.5L160.7,10.5c0-3.8,3-6.9,6.8-6.9s6.8,3.1,6.8,6.8l0,0c0,3.7-3,6.8-6.8,6.8
				C163.7,17.2,160.7,14.2,160.7,10.5 M173.5,10.4L173.5,10.4c0-3.4-2.6-6.1-6-6.1s-6,2.8-6,6.1l0,0c0,3.3,2.6,6.1,6,6.1
				S173.5,13.8,173.5,10.4 M164.9,6.9h3c1.4,0,2.5,0.7,2.5,2.1c0,1.1-0.7,1.8-1.7,2.1l1.9,2.7h-1.4l-1.7-2.5H166v2.5h-1.1V6.9z
				 M167.9,10.3c1,0,1.5-0.5,1.5-1.3s-0.6-1.2-1.5-1.2H166v2.5H167.9z"/>
		</g>
	</g>
</g>
</svg>
